<svg width="195" height="154" viewBox="0 0 195 154" fill="none" xmlns="http://www.w3.org/2000/svg">
<ellipse cx="3.49007" cy="3.5" rx="3.47682" ry="3.5" fill="#683EFC" fill-opacity="0.27"/>
<ellipse cx="3.49007" cy="24.5" rx="3.47682" ry="3.5" fill="#683EFC" fill-opacity="0.27"/>
<ellipse cx="3.49007" cy="45.5" rx="3.47682" ry="3.5" fill="#683EFC" fill-opacity="0.27"/>
<ellipse cx="3.49007" cy="66.5" rx="3.47682" ry="3.5" fill="#683EFC" fill-opacity="0.27"/>
<ellipse cx="3.49007" cy="87.5" rx="3.47682" ry="3.5" fill="#683EFC" fill-opacity="0.27"/>
<ellipse cx="3.49007" cy="108.5" rx="3.47682" ry="3.5" fill="#683EFC" fill-opacity="0.27"/>
<ellipse cx="3.49007" cy="129.5" rx="3.47682" ry="3.5" fill="#683EFC" fill-opacity="0.27"/>
<ellipse cx="3.49007" cy="150.5" rx="3.47682" ry="3.5" fill="#683EFC" fill-opacity="0.27"/>
<ellipse cx="24.351" cy="3.5" rx="3.47682" ry="3.5" fill="#683EFC" fill-opacity="0.27"/>
<ellipse cx="24.351" cy="24.5" rx="3.47682" ry="3.5" fill="#683EFC" fill-opacity="0.27"/>
<ellipse cx="24.351" cy="45.5" rx="3.47682" ry="3.5" fill="#683EFC" fill-opacity="0.27"/>
<ellipse cx="24.351" cy="66.5" rx="3.47682" ry="3.5" fill="#683EFC" fill-opacity="0.27"/>
<ellipse cx="24.351" cy="87.5" rx="3.47682" ry="3.5" fill="#683EFC" fill-opacity="0.27"/>
<ellipse cx="24.351" cy="108.5" rx="3.47682" ry="3.5" fill="#683EFC" fill-opacity="0.27"/>
<ellipse cx="24.351" cy="129.5" rx="3.47682" ry="3.5" fill="#683EFC" fill-opacity="0.27"/>
<ellipse cx="24.351" cy="150.5" rx="3.47682" ry="3.5" fill="#683EFC" fill-opacity="0.27"/>
<ellipse cx="45.2119" cy="3.5" rx="3.47682" ry="3.5" fill="#683EFC" fill-opacity="0.27"/>
<ellipse cx="45.2119" cy="24.5" rx="3.47682" ry="3.5" fill="#683EFC" fill-opacity="0.27"/>
<ellipse cx="45.2119" cy="45.5" rx="3.47682" ry="3.5" fill="#683EFC" fill-opacity="0.27"/>
<ellipse cx="45.2119" cy="66.5" rx="3.47682" ry="3.5" fill="#683EFC" fill-opacity="0.27"/>
<ellipse cx="45.2119" cy="87.5" rx="3.47682" ry="3.5" fill="#683EFC" fill-opacity="0.27"/>
<ellipse cx="45.2119" cy="108.5" rx="3.47682" ry="3.5" fill="#683EFC" fill-opacity="0.27"/>
<ellipse cx="45.2119" cy="129.5" rx="3.47682" ry="3.5" fill="#683EFC" fill-opacity="0.27"/>
<ellipse cx="45.2119" cy="150.5" rx="3.47682" ry="3.5" fill="#683EFC" fill-opacity="0.27"/>
<ellipse cx="66.0728" cy="3.5" rx="3.47682" ry="3.5" fill="#683EFC" fill-opacity="0.27"/>
<ellipse cx="66.0728" cy="24.5" rx="3.47682" ry="3.5" fill="#683EFC" fill-opacity="0.27"/>
<ellipse cx="66.0728" cy="45.5" rx="3.47682" ry="3.5" fill="#683EFC" fill-opacity="0.27"/>
<ellipse cx="66.0728" cy="66.5" rx="3.47682" ry="3.5" fill="#683EFC" fill-opacity="0.27"/>
<ellipse cx="66.0728" cy="87.5" rx="3.47682" ry="3.5" fill="#683EFC" fill-opacity="0.27"/>
<ellipse cx="66.0728" cy="108.5" rx="3.47682" ry="3.5" fill="#683EFC" fill-opacity="0.27"/>
<ellipse cx="66.0728" cy="129.5" rx="3.47682" ry="3.5" fill="#683EFC" fill-opacity="0.27"/>
<ellipse cx="66.0728" cy="150.5" rx="3.47682" ry="3.5" fill="#683EFC" fill-opacity="0.27"/>
<ellipse cx="86.9338" cy="3.5" rx="3.47682" ry="3.5" fill="#683EFC" fill-opacity="0.27"/>
<ellipse cx="86.9338" cy="24.5" rx="3.47682" ry="3.5" fill="#683EFC" fill-opacity="0.27"/>
<ellipse cx="86.9338" cy="45.5" rx="3.47682" ry="3.5" fill="#683EFC" fill-opacity="0.27"/>
<ellipse cx="86.9338" cy="66.5" rx="3.47682" ry="3.5" fill="#683EFC" fill-opacity="0.27"/>
<ellipse cx="86.9338" cy="87.5" rx="3.47682" ry="3.5" fill="#683EFC" fill-opacity="0.27"/>
<ellipse cx="86.9338" cy="108.5" rx="3.47682" ry="3.5" fill="#683EFC" fill-opacity="0.27"/>
<ellipse cx="86.9338" cy="129.5" rx="3.47682" ry="3.5" fill="#683EFC" fill-opacity="0.27"/>
<ellipse cx="86.9338" cy="150.5" rx="3.47682" ry="3.5" fill="#683EFC" fill-opacity="0.27"/>
<ellipse cx="107.795" cy="3.5" rx="3.47682" ry="3.5" fill="#683EFC" fill-opacity="0.27"/>
<ellipse cx="107.795" cy="24.5" rx="3.47682" ry="3.5" fill="#683EFC" fill-opacity="0.27"/>
<ellipse cx="107.795" cy="45.5" rx="3.47682" ry="3.5" fill="#683EFC" fill-opacity="0.27"/>
<ellipse cx="107.795" cy="66.5" rx="3.47682" ry="3.5" fill="#683EFC" fill-opacity="0.27"/>
<ellipse cx="107.795" cy="87.5" rx="3.47682" ry="3.5" fill="#683EFC" fill-opacity="0.27"/>
<ellipse cx="107.795" cy="108.5" rx="3.47682" ry="3.5" fill="#683EFC" fill-opacity="0.27"/>
<ellipse cx="107.795" cy="129.5" rx="3.47682" ry="3.5" fill="#683EFC" fill-opacity="0.27"/>
<ellipse cx="107.795" cy="150.5" rx="3.47682" ry="3.5" fill="#683EFC" fill-opacity="0.27"/>
<ellipse cx="128.656" cy="3.5" rx="3.47682" ry="3.5" fill="#683EFC" fill-opacity="0.27"/>
<ellipse cx="128.656" cy="24.5" rx="3.47682" ry="3.5" fill="#683EFC" fill-opacity="0.27"/>
<ellipse cx="128.656" cy="45.5" rx="3.47682" ry="3.5" fill="#683EFC" fill-opacity="0.27"/>
<ellipse cx="128.656" cy="66.5" rx="3.47682" ry="3.5" fill="#683EFC" fill-opacity="0.27"/>
<ellipse cx="128.656" cy="87.5" rx="3.47682" ry="3.5" fill="#683EFC" fill-opacity="0.27"/>
<ellipse cx="128.656" cy="108.5" rx="3.47682" ry="3.5" fill="#683EFC" fill-opacity="0.27"/>
<ellipse cx="128.656" cy="129.5" rx="3.47682" ry="3.5" fill="#683EFC" fill-opacity="0.27"/>
<ellipse cx="128.656" cy="150.5" rx="3.47682" ry="3.5" fill="#683EFC" fill-opacity="0.27"/>
<ellipse cx="149.517" cy="3.5" rx="3.47682" ry="3.5" fill="#683EFC" fill-opacity="0.27"/>
<ellipse cx="149.517" cy="24.5" rx="3.47682" ry="3.5" fill="#683EFC" fill-opacity="0.27"/>
<ellipse cx="149.517" cy="45.5" rx="3.47682" ry="3.5" fill="#683EFC" fill-opacity="0.27"/>
<ellipse cx="149.517" cy="66.5" rx="3.47682" ry="3.5" fill="#683EFC" fill-opacity="0.27"/>
<ellipse cx="149.517" cy="87.5" rx="3.47682" ry="3.5" fill="#683EFC" fill-opacity="0.27"/>
<ellipse cx="149.517" cy="108.5" rx="3.47682" ry="3.5" fill="#683EFC" fill-opacity="0.27"/>
<ellipse cx="149.517" cy="129.5" rx="3.47682" ry="3.5" fill="#683EFC" fill-opacity="0.27"/>
<ellipse cx="149.517" cy="150.5" rx="3.47682" ry="3.5" fill="#683EFC" fill-opacity="0.27"/>
<ellipse cx="170.377" cy="3.5" rx="3.47682" ry="3.5" fill="#683EFC" fill-opacity="0.27"/>
<ellipse cx="170.377" cy="24.5" rx="3.47682" ry="3.5" fill="#683EFC" fill-opacity="0.27"/>
<ellipse cx="170.377" cy="45.5" rx="3.47682" ry="3.5" fill="#683EFC" fill-opacity="0.27"/>
<ellipse cx="170.377" cy="66.5" rx="3.47682" ry="3.5" fill="#683EFC" fill-opacity="0.27"/>
<ellipse cx="170.377" cy="87.5" rx="3.47682" ry="3.5" fill="#683EFC" fill-opacity="0.27"/>
<ellipse cx="170.377" cy="108.5" rx="3.47682" ry="3.5" fill="#683EFC" fill-opacity="0.27"/>
<ellipse cx="170.377" cy="129.5" rx="3.47682" ry="3.5" fill="#683EFC" fill-opacity="0.27"/>
<ellipse cx="170.377" cy="150.5" rx="3.47682" ry="3.5" fill="#683EFC" fill-opacity="0.27"/>
<ellipse cx="191.238" cy="3.5" rx="3.47682" ry="3.5" fill="#683EFC" fill-opacity="0.27"/>
<ellipse cx="191.238" cy="24.5" rx="3.47682" ry="3.5" fill="#683EFC" fill-opacity="0.27"/>
<ellipse cx="191.238" cy="45.5" rx="3.47682" ry="3.5" fill="#683EFC" fill-opacity="0.27"/>
<ellipse cx="191.238" cy="66.5" rx="3.47682" ry="3.5" fill="#683EFC" fill-opacity="0.27"/>
<ellipse cx="191.238" cy="87.5" rx="3.47682" ry="3.5" fill="#683EFC" fill-opacity="0.27"/>
<ellipse cx="191.238" cy="108.5" rx="3.47682" ry="3.5" fill="#683EFC" fill-opacity="0.27"/>
<ellipse cx="191.238" cy="129.5" rx="3.47682" ry="3.5" fill="#683EFC" fill-opacity="0.27"/>
<ellipse cx="191.238" cy="150.5" rx="3.47682" ry="3.5" fill="#683EFC" fill-opacity="0.27"/>
</svg>
