<svg width="138" height="138" viewBox="0 0 138 138" fill="none" xmlns="http://www.w3.org/2000/svg">
<ellipse cx="50.2494" cy="50.4166" rx="50.2494" ry="50.4166" transform="matrix(0.864581 0.502494 -0.49751 0.867458 50.9205 0)" fill="#EFF1FF"/>
<path d="M90.1013 31.9036L92.1361 33.0862C92.5977 33.3545 92.947 33.6516 93.184 33.9776C93.4239 34.3053 93.5475 34.6557 93.5549 35.029C93.5666 35.401 93.4575 35.7875 93.2276 36.1885C93.0656 36.4709 92.8597 36.6957 92.6099 36.863C92.3645 37.0292 92.0879 37.1319 91.7801 37.1714C91.4767 37.2097 91.1546 37.1825 90.8137 37.0898L90.5348 37.0462L88.6224 35.9348L88.9953 35.2649L90.4391 36.104C90.7318 36.2741 91.0044 36.3648 91.2569 36.376C91.511 36.3844 91.7375 36.3296 91.9365 36.2118C92.1354 36.094 92.2956 35.9292 92.417 35.7174C92.5531 35.4802 92.6256 35.2457 92.6348 35.0138C92.644 34.7819 92.5762 34.5599 92.4314 34.3478C92.2911 34.1345 92.0647 33.937 91.7523 33.7554L90.5323 33.0464L87.3791 38.5442L86.5643 38.0707L90.1013 31.9036ZM90.1569 40.1587L90.2658 36.4946L91.1167 36.9835L91.0557 40.6133L91.0266 40.6641L90.1569 40.1587Z" fill="#32CD9F"/>
<path d="M95.4401 44.1022C95.1674 43.8547 94.9612 43.5841 94.8215 43.2905C94.6863 42.9966 94.6149 42.6925 94.6073 42.3783C94.6021 42.0662 94.6612 41.7554 94.7847 41.446C94.9081 41.1365 95.0934 40.8436 95.3403 40.5672L95.4768 40.4144C95.7627 40.0944 96.0643 39.8522 96.3815 39.6879C96.701 39.5211 97.0195 39.4238 97.3372 39.396C97.6548 39.3681 97.9563 39.4024 98.2416 39.4989C98.5269 39.5953 98.7793 39.7432 98.9989 39.9425C99.2789 40.1966 99.4769 40.4641 99.593 40.745C99.7115 41.0282 99.7579 41.3162 99.7323 41.609C99.7088 41.8995 99.6234 42.1907 99.476 42.4829C99.3308 42.7726 99.1347 43.0557 98.8878 43.3321L98.6181 43.634L95.693 40.9795L96.1837 40.4303L98.439 42.477L98.4845 42.4261C98.6308 42.2427 98.7462 42.0402 98.8308 41.8183C98.9178 41.5987 98.9425 41.3753 98.9051 41.1482C98.8677 40.921 98.7343 40.7034 98.5051 40.4953C98.353 40.3574 98.1838 40.2631 97.9974 40.2124C97.8132 40.1594 97.6189 40.1543 97.4145 40.1972C97.2102 40.24 97.0014 40.3294 96.7883 40.4653C96.5751 40.6011 96.3624 40.7879 96.1501 41.0255L96.0136 41.1783C95.8469 41.365 95.7151 41.5638 95.6185 41.7746C95.5265 41.9853 95.4747 42.1973 95.4632 42.4108C95.4541 42.6264 95.4893 42.834 95.5689 43.0336C95.6509 43.2353 95.7836 43.4194 95.967 43.5858C96.2035 43.8005 96.4471 43.9337 96.6979 43.9857C96.9486 44.0376 97.2081 44.0382 97.4763 43.9875L97.5926 44.6791C97.3933 44.731 97.1765 44.7559 96.9422 44.7541C96.7079 44.7522 96.463 44.7011 96.2073 44.6008C95.9541 44.5027 95.6984 44.3365 95.4401 44.1022Z" fill="#32CD9F"/>
<path d="M101.271 49.3923L103.46 47.7878C103.628 47.6649 103.749 47.5239 103.822 47.3648C103.9 47.2064 103.925 47.0348 103.896 46.8498C103.866 46.6649 103.78 46.4732 103.637 46.2746C103.504 46.0893 103.355 45.9495 103.191 45.8553C103.029 45.7638 102.869 45.7157 102.709 45.7112C102.552 45.7093 102.414 45.7516 102.296 45.838L101.767 45.1034C101.919 44.992 102.099 44.9213 102.305 44.8912C102.512 44.8612 102.728 44.8761 102.956 44.936C103.188 44.9967 103.414 45.1056 103.635 45.2629C103.861 45.4209 104.068 45.6296 104.254 45.8891C104.479 46.2015 104.625 46.5152 104.692 46.8303C104.761 47.148 104.738 47.4521 104.623 47.7427C104.512 48.034 104.298 48.2958 103.981 48.5282L102.001 49.98C101.859 50.0837 101.717 50.2061 101.575 50.3471C101.434 50.4907 101.324 50.6299 101.245 50.7647L101.182 50.8108L100.63 50.0444C100.687 49.9459 100.778 49.8351 100.901 49.7122C101.028 49.5873 101.151 49.4807 101.271 49.3923ZM103.214 48.1626L102.709 48.545L102.174 47.8025C102.023 47.5933 101.872 47.4192 101.72 47.28C101.57 47.1389 101.422 47.0368 101.277 46.9736C101.131 46.9105 100.988 46.8862 100.846 46.901C100.707 46.9138 100.573 46.9682 100.442 47.0642C100.308 47.1622 100.208 47.2819 100.142 47.4235C100.076 47.565 100.054 47.7207 100.076 47.8905C100.103 48.061 100.181 48.2362 100.31 48.4163C100.472 48.6413 100.663 48.8053 100.881 48.9082C101.099 49.0111 101.312 49.063 101.521 49.0637C101.732 49.0671 101.904 49.0257 102.038 48.9395L101.914 49.5096C101.791 49.5717 101.633 49.6107 101.44 49.6266C101.247 49.6425 101.04 49.6267 100.818 49.5793C100.6 49.5327 100.383 49.4451 100.166 49.3167C99.9542 49.189 99.7643 49.0087 99.5966 48.7757C99.3869 48.4845 99.2593 48.1878 99.2137 47.8855C99.17 47.5858 99.1987 47.3059 99.2996 47.0459C99.4051 46.7866 99.5757 46.5705 99.8115 46.3977C100.039 46.2306 100.272 46.1287 100.51 46.0919C100.75 46.0533 100.989 46.0764 101.226 46.1613C101.466 46.2443 101.702 46.3829 101.934 46.577C102.166 46.771 102.387 47.015 102.599 47.3089L103.214 48.1626Z" fill="#32CD9F"/>
<path d="M109.04 50.9355L102.219 54.0041L101.852 53.1707L108.673 50.1021L109.04 50.9355Z" fill="#32CD9F"/>
<path d="M113.869 63.6261L113.866 65.9854C113.865 66.5206 113.784 66.9727 113.621 67.3416C113.458 67.7139 113.217 67.9964 112.899 68.1894C112.584 68.3856 112.196 68.484 111.734 68.4846C111.41 68.485 111.113 68.4185 110.843 68.285C110.577 68.1548 110.35 67.9658 110.162 67.7181C109.977 67.4736 109.84 67.18 109.749 66.8375L109.647 66.5733L109.65 64.3559L110.415 64.3451L110.413 66.0192C110.412 66.3586 110.47 66.6408 110.587 66.8658C110.707 67.0908 110.867 67.2603 111.069 67.3743C111.27 67.4882 111.492 67.545 111.736 67.5447C112.008 67.5444 112.247 67.4902 112.452 67.3823C112.657 67.2743 112.814 67.1044 112.925 66.8726C113.039 66.644 113.096 66.3486 113.097 65.9864L113.098 64.5718L106.776 64.5799L106.777 63.6351L113.869 63.6261ZM106.772 67.8007L109.989 66.0638L109.993 67.0477L106.829 68.809L106.771 68.8091L106.772 67.8007Z" fill="#32CD9F"/>
<path d="M107.551 77.0702L106.802 76.9107L107.585 73.2217L108.333 73.3812L107.551 77.0702ZM114.487 74.8873L107.545 73.4083L107.741 72.4849L114.682 73.9639L114.487 74.8873ZM110.863 77.2658L110.114 77.1063L110.793 73.9053L111.542 74.0648L110.863 77.2658ZM113.754 78.3418L113.001 78.1813L113.773 74.5402L114.526 74.7007L113.754 78.3418Z" fill="#32CD9F"/>
<path d="M104.505 84.8662L103.805 84.553L105.245 81.3006L105.944 81.6137L104.505 84.8662ZM111.654 84.3744L105.17 81.4704L105.552 80.6081L112.036 83.5121L111.654 84.3744Z" fill="#32CD9F"/>
<path d="M79.2707 105.953L78.888 105.286L81.9536 103.505L82.3364 104.171L79.2707 105.953ZM85.3432 109.778L81.7936 103.598L82.6064 103.125L86.1559 109.305L85.3432 109.778Z" fill="#32CD9F"/>
<path d="M106.917 92.681L101.177 88.4798L101.728 87.7159L107.468 91.9172L106.917 92.681Z" fill="#32CD9F"/>
<path d="M101.043 98.2106L98.4597 91.7897L99.1706 91.1442L101.911 98.2749L101.452 98.691L101.043 98.2106ZM95.2622 94.693L101.328 97.9517L101.759 98.4125L101.301 98.8287L94.5476 95.3418L95.2622 94.693ZM97.1082 96.5775L96.5935 96.0011L99.5456 93.3207L100.06 93.8971L97.1082 96.5775Z" fill="#32CD9F"/>
<path d="M92.2657 99.458L93.8184 98.5529L94.2035 99.2066L92.7938 100.028C92.561 100.164 92.3802 100.322 92.2517 100.503C92.1231 100.684 92.0532 100.875 92.0421 101.078C92.0298 101.286 92.0827 101.493 92.201 101.7C92.3306 101.926 92.4794 102.085 92.6473 102.176C92.8141 102.271 93.0045 102.3 93.2185 102.262C93.4313 102.229 93.6724 102.134 93.9417 101.977L95.1367 101.28L91.9827 95.7646L92.7948 95.2912L96.3328 101.478L94.3256 102.648C94.0114 102.831 93.7122 102.962 93.4281 103.041C93.1456 103.123 92.8799 103.145 92.631 103.109C92.381 103.077 92.1519 102.984 91.9439 102.83C91.7359 102.675 91.5492 102.454 91.384 102.165C91.2382 101.91 91.1707 101.641 91.1815 101.359C91.1939 101.08 91.2779 100.808 91.4334 100.544C91.5861 100.281 91.8048 100.042 92.0895 99.827L92.2657 99.458ZM90.6487 96.5422L92.4834 95.4727L92.4063 96.4072L91.0302 97.2093C90.7722 97.3597 90.5793 97.5326 90.4516 97.7279C90.3211 97.9249 90.2551 98.1333 90.2537 98.3532C90.2539 98.5759 90.3188 98.8006 90.4484 99.0272C90.5796 99.2567 90.7336 99.4313 90.9106 99.551C91.0875 99.6707 91.2889 99.7252 91.5146 99.7145C91.7404 99.7037 91.9907 99.6183 92.2657 99.458L93.4229 98.7835L93.7911 99.447L92.2089 100.369L91.9003 100.232C91.5911 100.378 91.2929 100.439 91.0055 100.414C90.7197 100.391 90.4603 100.301 90.2273 100.142C89.9916 99.9847 89.7976 99.773 89.6453 99.5067C89.425 99.1214 89.3228 98.7466 89.3389 98.3822C89.3537 98.0222 89.473 97.6846 89.6966 97.3691C89.9218 97.0566 90.2392 96.7809 90.6487 96.5422Z" fill="#32CD9F"/>
<path d="M88.7218 106.566L85.1939 100.373L86.0067 99.9007L89.5345 106.093L88.7218 106.566Z" fill="#32CD9F"/>
<path d="M78.1031 111.866L76.2892 104.971L77.1964 104.726L79.0104 111.621L78.1031 111.866Z" fill="#32CD9F"/>
<path d="M63.7183 112.128L63.7389 105.001L64.6789 105.001L64.6583 112.128L63.7183 112.128Z" fill="#32CD9F"/>
<path d="M62.4236 105.945L62.4026 106.145C62.3731 106.424 62.2616 106.645 62.068 106.808C61.8712 106.971 61.6209 107.037 61.3172 107.005C61.0103 106.973 60.7776 106.857 60.6191 106.657C60.4606 106.456 60.396 106.217 60.4255 105.938L60.4465 105.738C60.4756 105.462 60.5886 105.243 60.7854 105.08C60.9787 104.92 61.2288 104.856 61.5357 104.888C61.8394 104.92 62.0706 105.034 62.2295 105.231C62.388 105.431 62.4527 105.669 62.4236 105.945Z" fill="#32CD9F"/>
<path d="M69.8404 112.117L69.8526 104.99L70.778 104.99L70.7658 112.117L69.8404 112.117ZM67.561 112.117L67.5623 111.344L73.0417 111.344L73.0404 112.117L67.561 112.117Z" fill="#32CD9F"/>
<path d="M33.7078 64.6175C33.5422 64.6177 33.396 64.644 33.2693 64.6964C33.1394 64.7455 33.0224 64.8337 32.9183 64.9611C32.8142 65.0853 32.715 65.2584 32.6205 65.4804C32.5261 65.6991 32.43 65.9766 32.3321 66.3129C32.2278 66.6655 32.1121 66.9838 31.9851 67.2678C31.8549 67.5519 31.7068 67.7952 31.541 67.9977C31.3751 68.2003 31.185 68.3555 30.9705 68.4635C30.7561 68.5715 30.5109 68.6256 30.2349 68.626C29.9589 68.6263 29.704 68.5695 29.4704 68.4556C29.2368 68.3417 29.034 68.1788 28.8622 67.9669C28.6871 67.7518 28.5511 67.4958 28.454 67.1989C28.357 66.9021 28.3087 66.5709 28.3092 66.2054C28.3098 65.6703 28.4127 65.2165 28.6177 64.8443C28.8195 64.4687 29.0845 64.1829 29.4127 63.9866C29.7377 63.7904 30.0852 63.6921 30.4554 63.6916L30.4542 64.6314C30.1879 64.6318 29.9525 64.6892 29.7477 64.8037C29.5398 64.9181 29.3772 65.0913 29.26 65.3231C29.1396 65.555 29.0792 65.8488 29.0787 66.2045C29.0783 66.5406 29.1283 66.8179 29.2287 67.0364C29.329 67.2549 29.4652 67.4179 29.6372 67.5254C29.8091 67.6296 30.0055 67.6815 30.2263 67.6813C30.3757 67.6811 30.5121 67.6499 30.6356 67.5877C30.7558 67.5223 30.8679 67.4226 30.972 67.2887C31.0761 67.1515 31.1721 66.9784 31.26 66.7695C31.348 66.5573 31.4327 66.3042 31.5143 66.0104C31.6284 65.6057 31.7555 65.2563 31.8955 64.9624C32.0355 64.6686 32.1933 64.4269 32.3688 64.2374C32.5412 64.0446 32.7378 63.9024 32.9587 63.8108C33.1764 63.7159 33.4232 63.6682 33.6992 63.6679C33.9882 63.6675 34.2495 63.7259 34.4832 63.8431C34.7168 63.9603 34.9163 64.1281 35.0816 64.3465C35.2469 64.5649 35.3749 64.8275 35.4654 65.1341C35.5527 65.4375 35.5961 65.7768 35.5956 66.1521C35.5952 66.4817 35.5493 66.8064 35.458 67.1263C35.3667 67.443 35.23 67.732 35.0478 67.9933C34.8656 68.2513 34.6413 68.4588 34.3749 68.6158C34.1052 68.7695 33.7934 68.8466 33.4394 68.847L33.4406 67.9072C33.6841 67.9069 33.8936 67.8593 34.0691 67.7645C34.2413 67.6696 34.3843 67.5405 34.4982 67.3772C34.6121 67.2106 34.6967 67.0229 34.7522 66.814C34.8044 66.6018 34.8307 66.3815 34.8309 66.1531C34.8314 65.8235 34.7862 65.5445 34.6956 65.3162C34.605 65.0879 34.4753 64.9151 34.3066 64.7978C34.1379 64.6773 33.9383 64.6172 33.7078 64.6175Z" fill="#32CD9F"/>
<path d="M32.1835 55.8139L32.6221 55.9074C33.1434 56.0184 33.5967 56.1834 33.9822 56.4022C34.3676 56.621 34.6789 56.884 34.9161 57.1913C35.1532 57.4985 35.3115 57.8406 35.3911 58.2176C35.4712 58.5914 35.4664 58.9905 35.3764 59.4147C35.2892 59.8262 35.1327 60.1879 34.9071 60.4999C34.6822 60.8087 34.3984 61.0583 34.0557 61.2487C33.7138 61.4358 33.3216 61.554 32.8794 61.6031C32.4371 61.6522 31.9553 61.6213 31.4341 61.5102L30.9955 61.4167C30.4742 61.3057 30.0228 61.1395 29.6412 60.9182C29.2571 60.693 28.9468 60.4252 28.7104 60.1147C28.4707 59.8036 28.3108 59.4612 28.2306 59.0874C28.1511 58.7104 28.155 58.3161 28.2422 57.9046C28.3322 57.4804 28.4896 57.1139 28.7145 56.8051C28.9401 56.4931 29.2252 56.2454 29.5697 56.0621C29.9117 55.875 30.3031 55.76 30.744 55.7173C31.1824 55.6706 31.6623 55.7029 32.1835 55.8139ZM32.4283 56.8212L31.9802 56.7258C31.567 56.6377 31.1924 56.6029 30.8563 56.6213C30.5209 56.6365 30.2278 56.7025 29.9772 56.8191C29.7266 56.9357 29.5206 57.1002 29.3594 57.3125C29.1987 57.5217 29.087 57.7746 29.0241 58.0712C28.9632 58.3583 28.9637 58.6301 29.0256 58.8867C29.0881 59.14 29.2099 59.3727 29.3908 59.5846C29.5725 59.7933 29.8127 59.9762 30.1116 60.1332C30.4105 60.2903 30.7665 60.4128 31.1797 60.5008L31.6279 60.5963C32.0442 60.685 32.4224 60.7189 32.7623 60.698C33.0991 60.6764 33.3947 60.6061 33.6492 60.4869C33.9012 60.3639 34.1071 60.1994 34.2671 59.9935C34.4277 59.7843 34.5384 59.5362 34.5993 59.2491C34.6629 58.9493 34.6637 58.6711 34.6019 58.4145C34.54 58.158 34.4179 57.9269 34.2356 57.7214C34.0508 57.512 33.8083 57.332 33.508 57.1813C33.2046 57.03 32.8447 56.91 32.4283 56.8212Z" fill="#32CD9F"/>
<path d="M37.7444 50.2952L38.4437 50.6083L37.004 53.8608L36.3048 53.5476L37.7444 50.2952ZM30.5946 50.787L37.0792 53.691L36.6975 54.5532L30.2129 51.6493L30.5946 50.787Z" fill="#32CD9F"/>
<path d="M36.0197 41.5265L36.5678 40.7666L40.4513 43.6088C40.8824 43.9243 41.1717 44.2832 41.3193 44.6854C41.4668 45.0877 41.4978 45.5014 41.4121 45.9265C41.3256 46.347 41.1482 46.7433 40.8799 47.1153C40.5982 47.5058 40.2723 47.8074 39.9019 48.0202C39.5309 48.2284 39.1355 48.32 38.7158 48.295C38.298 48.2674 37.8736 48.0958 37.4425 47.7803L33.559 44.9382L34.1042 44.1822L37.9877 47.0244C38.2874 47.2437 38.5744 47.3691 38.8489 47.4006C39.1233 47.4322 39.3792 47.3836 39.6165 47.255C39.8558 47.1237 40.0706 46.9261 40.2609 46.6623C40.4531 46.3958 40.5733 46.129 40.6214 45.8618C40.6714 45.592 40.6391 45.3306 40.5245 45.0774C40.41 44.8242 40.2029 44.588 39.9032 44.3687L36.0197 41.5265Z" fill="#32CD9F"/>
<path d="M40.9879 36.2964L45.731 41.6085L45.0453 42.2311L40.3022 36.919L40.9879 36.2964ZM42.6769 34.7629L43.1916 35.3393L39.1315 39.0257L38.6168 38.4493L42.6769 34.7629Z" fill="#32CD9F"/>
<path d="M48.298 32.2947L51.836 38.4816L51.0238 38.955L47.4858 32.768L48.298 32.2947Z" fill="#32CD9F"/>
<path d="M59.0466 31.4794L59.1844 31.9084C59.3481 32.4181 59.4316 32.8958 59.435 33.3414C59.4383 33.787 59.3667 34.1903 59.2201 34.5511C59.0735 34.912 58.8577 35.2218 58.5726 35.4805C58.2905 35.7381 57.9445 35.9343 57.5343 36.0691C57.1366 36.1999 56.7472 36.2454 56.3663 36.2057C55.9884 36.165 55.6323 36.0432 55.2978 35.8404C54.9665 35.6367 54.6696 35.3545 54.4072 34.994C54.1449 34.6336 53.9318 34.1985 53.7681 33.6887L53.6304 33.2598C53.4666 32.7501 53.3852 32.2734 53.3859 31.8299C53.3887 31.3823 53.465 30.9775 53.6146 30.6156C53.7633 30.2506 53.9787 29.9393 54.2607 29.6816C54.5458 29.423 54.8873 29.2283 55.285 29.0975C55.6952 28.9627 56.0891 28.9157 56.467 28.9564C56.8479 28.9961 57.203 29.1199 57.5323 29.3278C57.8637 29.5316 58.1575 29.8148 58.4137 30.1773C58.6719 30.5356 58.8829 30.9697 59.0466 31.4794ZM58.301 32.1988L58.1602 31.7605C58.0304 31.3564 57.874 31.0127 57.6909 30.7292C57.5109 30.4448 57.3084 30.2227 57.0832 30.0631C56.8581 29.9034 56.6139 29.8067 56.3508 29.7729C56.0908 29.7381 55.8174 29.7678 55.5306 29.8621C55.2531 29.9533 55.0192 30.0903 54.8291 30.2731C54.642 30.4549 54.5022 30.6778 54.4098 30.9418C54.3204 31.2049 54.2824 31.506 54.2959 31.8452C54.3094 32.1844 54.381 32.556 54.5108 32.9601L54.6516 33.3983C54.7823 33.8055 54.9413 34.1519 55.1285 34.4374C55.3146 34.7198 55.5223 34.9419 55.7515 35.1037C55.9828 35.2613 56.227 35.358 56.4839 35.3938C56.744 35.4286 57.0128 35.4004 57.2903 35.3092C57.5801 35.2139 57.8201 35.0749 58.0103 34.8921C58.2005 34.7093 58.3387 34.4869 58.425 34.2249C58.5134 33.9587 58.5477 33.6571 58.5281 33.3199C58.5074 32.9796 58.4317 32.6059 58.301 32.1988Z" fill="#32CD9F"/>
<path d="M66.1844 26.146L67.9983 33.0412L67.0864 33.2872L62.2417 28.8984L63.6407 34.2166L62.7335 34.4613L60.9195 27.5661L61.8268 27.3214L66.6894 31.7206L65.2865 26.3882L66.1844 26.146Z" fill="#32CD9F"/>
<path d="M70.2544 30.9046L70.2754 30.7051C70.3048 30.4261 70.4164 30.2049 70.61 30.0415C70.8068 29.8785 71.0571 29.8128 71.3608 29.8446C71.6677 29.8767 71.9004 29.9929 72.0589 30.1932C72.2174 30.3935 72.2819 30.6331 72.2525 30.9121L72.2315 31.1116C72.2024 31.3874 72.0894 31.6068 71.8925 31.7699C71.6993 31.93 71.4492 31.994 71.1423 31.9619C70.8386 31.9301 70.6073 31.8157 70.4485 31.6187C70.29 31.4184 70.2253 31.1804 70.2544 30.9046Z" fill="#32CD9F"/>
<path d="M44.9144 99.2436L46.5566 100.198L46.1752 100.863L44.533 99.9086C44.215 99.7238 43.9283 99.6249 43.673 99.6121C43.4177 99.5993 43.1932 99.657 42.9995 99.7854C42.8029 99.9121 42.6383 100.091 42.5055 100.323C42.384 100.535 42.3163 100.761 42.3023 101.001C42.2854 101.24 42.3431 101.473 42.4754 101.7C42.606 101.931 42.8303 102.138 43.1483 102.323L44.6005 103.167L47.7537 97.6691L48.5685 98.1427L45.0315 104.31L42.7645 102.992C42.3001 102.722 41.9537 102.414 41.7251 102.066C41.4966 101.719 41.3811 101.354 41.3786 100.972C41.3745 100.594 41.4769 100.222 41.6858 99.8578C41.9126 99.4624 42.1891 99.1732 42.5155 98.9902C42.8419 98.8072 43.2076 98.7355 43.6127 98.7751C44.0161 98.8176 44.45 98.9737 44.9144 99.2436Z" fill="#32CD9F"/>
<path d="M41.055 93.2606C41.3278 93.5081 41.534 93.7787 41.6737 94.0723C41.8088 94.3662 41.8802 94.6702 41.8879 94.9845C41.8931 95.2966 41.834 95.6074 41.7105 95.9168C41.587 96.2262 41.4018 96.5192 41.1549 96.7956L41.0184 96.9483C40.7324 97.2684 40.4309 97.5106 40.1136 97.6749C39.7942 97.8417 39.4757 97.939 39.158 97.9668C38.8403 97.9947 38.5389 97.9604 38.2536 97.8639C37.9683 97.7675 37.7158 97.6196 37.4962 97.4203C37.2163 97.1662 37.0182 96.8987 36.9022 96.6178C36.7837 96.3346 36.7373 96.0466 36.7629 95.7538C36.7864 95.4633 36.8718 95.1721 37.0192 94.8799C37.1644 94.5902 37.3604 94.3071 37.6074 94.0307L37.8771 93.7288L40.8021 96.3833L40.3115 96.9325L38.0562 94.8858L38.0107 94.9367C37.8644 95.1201 37.7489 95.3226 37.6644 95.5445C37.5774 95.7641 37.5526 95.9875 37.5901 96.2146C37.6275 96.4418 37.7608 96.6594 37.9901 96.8675C38.1422 97.0054 38.3114 97.0997 38.4978 97.1503C38.682 97.2034 38.8763 97.2085 39.0806 97.1656C39.285 97.1227 39.4937 97.0334 39.7069 96.8975C39.92 96.7617 40.1328 96.5749 40.345 96.3373L40.4815 96.1845C40.6483 95.9978 40.78 95.799 40.8766 95.5882C40.9687 95.3775 41.0205 95.1655 41.032 94.952C41.0411 94.7364 41.0059 94.5288 40.9263 94.3292C40.8443 94.1275 40.7116 93.9434 40.5282 93.777C40.2917 93.5623 40.048 93.4291 39.7973 93.3771C39.5465 93.3252 39.287 93.3246 39.0188 93.3753L38.9025 92.6837C39.1018 92.6318 39.3186 92.6068 39.5529 92.6087C39.7872 92.6106 40.0322 92.6617 40.2878 92.762C40.5411 92.8601 40.7968 93.0263 41.055 93.2606Z" fill="#32CD9F"/>
<path d="M34.9814 87.8465C34.8766 87.9233 34.7969 88.0182 34.7421 88.1311C34.6828 88.2434 34.668 88.3978 34.6976 88.5946C34.7226 88.7906 34.8096 89.0503 34.9586 89.3739C35.0804 89.6487 35.1768 89.9076 35.2478 90.1508C35.3169 90.3914 35.3517 90.6147 35.3519 90.8207C35.3503 91.0241 35.3098 91.2096 35.2302 91.3771C35.1507 91.5446 35.0232 91.6927 34.8477 91.8214C34.68 91.9443 34.4948 92.0234 34.2921 92.0587C34.0875 92.0914 33.878 92.0812 33.6636 92.028C33.4473 91.9722 33.2359 91.8704 33.0293 91.7225C32.8228 91.5746 32.6328 91.3802 32.4593 91.1393C32.2115 90.7952 32.0601 90.4571 32.0053 90.1253C31.9504 89.7934 31.9771 89.4886 32.0855 89.211C32.1912 88.9354 32.3658 88.7082 32.6095 88.5296L33.1384 89.2642C33.0206 89.3507 32.9323 89.4699 32.8738 89.6221C32.8107 89.7735 32.7911 89.9436 32.8149 90.1324C32.8369 90.3185 32.9174 90.5082 33.0566 90.7015C33.2034 90.9053 33.354 91.0477 33.5083 91.1287C33.6582 91.2089 33.8012 91.2436 33.9375 91.2327C34.0718 91.2192 34.1914 91.174 34.2962 91.0972C34.3748 91.0396 34.436 90.9745 34.4798 90.9019C34.5191 90.8286 34.5392 90.737 34.5401 90.6271C34.5384 90.5192 34.5131 90.384 34.4643 90.2217C34.4154 90.0593 34.3408 89.8612 34.2405 89.6273C34.0655 89.2176 33.9511 88.8586 33.8972 88.5503C33.8433 88.242 33.8562 87.9737 33.9359 87.7453C34.0157 87.517 34.1695 87.3193 34.3974 87.1522C34.5834 87.0158 34.7823 86.9307 34.9941 86.8968C35.2039 86.8603 35.4185 86.8749 35.6379 86.9405C35.8528 87.0055 36.0651 87.1168 36.2747 87.2746C36.4799 87.4316 36.673 87.6359 36.8541 87.8874C37.1267 88.2659 37.2905 88.6352 37.3456 88.9952C37.4007 89.3553 37.3708 89.6805 37.2558 89.9711C37.1408 90.2617 36.9655 90.4934 36.7297 90.6662L36.1978 89.9276C36.3893 89.7711 36.5059 89.5967 36.5475 89.4044C36.5865 89.214 36.5756 89.0238 36.5149 88.8337C36.4514 88.6456 36.3654 88.4761 36.2568 88.3252C36.1119 88.124 35.9646 87.9751 35.815 87.8785C35.6635 87.7793 35.5162 87.7275 35.373 87.7233C35.2298 87.719 35.0993 87.7601 34.9814 87.8465Z" fill="#32CD9F"/>
<path d="M28.2156 83.1508L28.8462 82.8671L30.0011 85.4882L29.3706 85.7719L28.2156 83.1508ZM27.8117 85.4102L27.4465 84.5813L32.2292 82.4297C32.392 82.3564 32.5037 82.2757 32.5642 82.1877C32.6248 82.0996 32.6506 82.0092 32.6417 81.9166C32.6328 81.824 32.6079 81.7314 32.5671 81.6388C32.5369 81.5701 32.4994 81.501 32.4546 81.4317C32.4056 81.3607 32.3681 81.3078 32.3421 81.2729L33.0107 80.9668C33.0604 81.0232 33.1178 81.1011 33.1829 81.2007C33.2497 81.2959 33.316 81.4182 33.3818 81.5675C33.4713 81.7707 33.5136 81.9753 33.5087 82.1815C33.5038 82.3878 33.4304 82.5836 33.2887 82.7691C33.1426 82.9529 32.9097 83.1167 32.59 83.2605L27.8117 85.4102Z" fill="#32CD9F"/>
<g clip-path="url(#clip0_0_149)">
<g clip-path="url(#clip1_0_149)">
<path d="M65.0856 60.1094C65.8722 60.6801 66.9695 60.5009 67.5365 59.709C68.1034 58.9172 67.9254 57.8126 67.1388 57.2419C66.3522 56.6712 65.2549 56.8504 64.6879 57.6423C64.121 58.4341 64.299 59.5387 65.0856 60.1094Z" fill="#32CD9F"/>
<path d="M68.2548 66.7661C68.7792 67.1466 69.5107 67.0271 69.8887 66.4992C70.2667 65.9713 70.148 65.2349 69.6236 64.8545C69.0992 64.474 68.3677 64.5935 67.9897 65.1214C67.6117 65.6493 67.7304 66.3856 68.2548 66.7661Z" fill="#32CD9F"/>
<path d="M71.3254 80.6131C71.8498 80.9935 72.5813 80.874 72.9593 80.3462C73.3373 79.8183 73.2186 79.0819 72.6942 78.7014C72.1698 78.3209 71.4383 78.4404 71.0603 78.9683C70.6823 79.4962 70.801 80.2326 71.3254 80.6131Z" fill="#32CD9F"/>
<path d="M79.6489 75.0333C78.373 74.1081 76.9072 73.4828 75.3595 73.2033C73.8117 72.9239 72.2214 72.9974 70.7056 73.4185L73.6867 69.2549C74.7707 67.7415 75.5142 66.0085 75.8656 64.1766L76.0586 63.1896L75.1191 62.8434C74.814 62.7395 74.5249 62.5933 74.2601 62.4089C73.5054 61.8602 72.9978 61.0324 72.8486 60.1074C72.6995 59.1823 72.9211 58.2354 73.4646 57.4746C73.6579 57.2158 73.886 56.9854 74.1424 56.7899L74.9266 56.1622L74.4332 55.2856C73.5238 53.66 72.2739 52.253 70.7702 51.1624L66.0227 47.7178L61.2321 54.4086C59.5898 56.6948 58.7414 59.4618 58.818 62.2821L58.8944 62.9591L59.4332 63.2948C60.5391 64.0038 61.4051 65.0342 61.9163 66.2497C62.4276 67.4651 62.56 68.8082 62.2961 70.1011L62.1658 70.7284L62.6192 71.1793C63.094 71.6594 63.6053 72.1013 64.1486 72.5011L66.9971 74.5679L60.1534 84.1263L62.0525 85.5041L64.7899 81.6808L67.6385 83.7476C69.9059 85.3889 72.7276 86.0578 75.4843 85.6075C78.2411 85.1572 80.7078 83.6244 82.3433 81.3454L84.3964 78.4779L79.6489 75.0333ZM64.701 69.9201C64.906 68.3438 64.6854 66.7409 64.0624 65.28C63.4393 63.8192 62.4367 62.5543 61.1601 61.6184C61.2219 59.5196 61.9086 57.4878 63.1311 55.7865L66.553 51.0073L69.4015 53.0741C70.3818 53.7842 71.2314 54.6611 71.912 55.6654C71.7887 55.8026 71.6731 55.9466 71.5656 56.0968C71.0838 56.7602 70.7462 57.5183 70.5749 58.3218C70.4035 59.1253 70.4022 59.9562 70.571 60.7602C70.7399 61.5643 71.0751 62.3235 71.5548 62.9885C72.0346 63.6534 72.6481 64.2092 73.3554 64.6195C73.0248 65.7888 72.4943 66.8911 71.7877 67.877L68.3659 72.6562L65.5174 70.5894C65.2331 70.3817 64.9606 70.1582 64.701 69.9201V69.9201ZM80.4443 79.9676C79.1722 81.74 77.2537 82.9321 75.1095 83.2824C72.9654 83.6327 70.7708 83.1125 69.0072 81.8359L66.1587 79.7691L66.843 78.8133C67.8789 77.3717 69.3495 76.3053 71.036 75.773C72.7224 75.2406 74.5345 75.2707 76.2026 75.8587C76.0358 76.0333 75.9064 76.2405 75.8227 76.4676C75.7389 76.6946 75.7024 76.9366 75.7156 77.1785C75.7288 77.4203 75.7913 77.6568 75.8993 77.8733C76.0073 78.0898 76.1584 78.2815 76.3432 78.4366C76.528 78.5917 76.7426 78.7068 76.9736 78.7748C77.2045 78.8427 77.4469 78.8621 77.6856 78.8316C77.9243 78.8011 78.1542 78.7215 78.361 78.5976C78.5678 78.4738 78.747 78.3084 78.8875 78.1118C79.0027 77.9474 79.0889 77.7643 79.1423 77.5705L81.1287 79.0117L80.4443 79.9676Z" fill="#32CD9F"/>
</g>
</g>
<defs>
<clipPath id="clip0_0_149">
<rect width="44.3368" height="73" fill="white" transform="matrix(0.864581 0.502494 -0.49751 0.867458 65.8812 30)"/>
</clipPath>
<clipPath id="clip1_0_149">
<rect width="37.5179" height="37.6402" fill="white" transform="matrix(0.80986 0.587609 -0.58182 0.81261 65.4924 44.4282)"/>
</clipPath>
</defs>
</svg>
