<svg width="348" height="274" viewBox="0 0 348 274" fill="none" xmlns="http://www.w3.org/2000/svg">
<ellipse cx="6.58942" cy="6" rx="5.96026" ry="6" fill="#683EFC" fill-opacity="0.1"/>
<ellipse cx="6.58942" cy="43.5" rx="5.96026" ry="6.5" fill="#683EFC" fill-opacity="0.1"/>
<ellipse cx="6.58942" cy="81" rx="5.96026" ry="6" fill="#683EFC" fill-opacity="0.1"/>
<ellipse cx="6.58942" cy="118.5" rx="5.96026" ry="6.5" fill="#683EFC" fill-opacity="0.1"/>
<ellipse cx="6.58942" cy="155.5" rx="5.96026" ry="6.5" fill="#683EFC" fill-opacity="0.1"/>
<ellipse cx="6.58942" cy="193" rx="5.96026" ry="6" fill="#683EFC" fill-opacity="0.1"/>
<ellipse cx="6.58942" cy="230.5" rx="5.96026" ry="6.5" fill="#683EFC" fill-opacity="0.1"/>
<ellipse cx="6.58942" cy="268" rx="5.96026" ry="6" fill="#683EFC" fill-opacity="0.1"/>
<ellipse cx="43.8411" cy="6" rx="6.45695" ry="6" fill="#683EFC" fill-opacity="0.1"/>
<ellipse cx="43.8411" cy="43.5" rx="6.45695" ry="6.5" fill="#683EFC" fill-opacity="0.1"/>
<ellipse cx="43.8411" cy="81" rx="6.45695" ry="6" fill="#683EFC" fill-opacity="0.1"/>
<ellipse cx="43.8411" cy="118.5" rx="6.45695" ry="6.5" fill="#683EFC" fill-opacity="0.1"/>
<ellipse cx="43.8411" cy="155.5" rx="6.45695" ry="6.5" fill="#683EFC" fill-opacity="0.1"/>
<ellipse cx="43.8411" cy="193" rx="6.45695" ry="6" fill="#683EFC" fill-opacity="0.1"/>
<ellipse cx="43.8411" cy="230.5" rx="6.45695" ry="6.5" fill="#683EFC" fill-opacity="0.1"/>
<ellipse cx="43.8411" cy="268" rx="6.45695" ry="6" fill="#683EFC" fill-opacity="0.1"/>
<ellipse cx="81.0927" cy="6" rx="5.96026" ry="6" fill="#683EFC" fill-opacity="0.1"/>
<ellipse cx="81.0927" cy="43.5" rx="5.96026" ry="6.5" fill="#683EFC" fill-opacity="0.1"/>
<ellipse cx="81.0927" cy="81" rx="5.96026" ry="6" fill="#683EFC" fill-opacity="0.1"/>
<ellipse cx="81.0927" cy="118.5" rx="5.96026" ry="6.5" fill="#683EFC" fill-opacity="0.1"/>
<ellipse cx="81.0927" cy="155.5" rx="5.96026" ry="6.5" fill="#683EFC" fill-opacity="0.1"/>
<ellipse cx="81.0927" cy="193" rx="5.96026" ry="6" fill="#683EFC" fill-opacity="0.1"/>
<ellipse cx="81.0927" cy="230.5" rx="5.96026" ry="6.5" fill="#683EFC" fill-opacity="0.1"/>
<ellipse cx="81.0927" cy="268" rx="5.96026" ry="6" fill="#683EFC" fill-opacity="0.1"/>
<ellipse cx="118.344" cy="6" rx="6.45695" ry="6" fill="#683EFC" fill-opacity="0.1"/>
<ellipse cx="118.344" cy="43.5" rx="6.45695" ry="6.5" fill="#683EFC" fill-opacity="0.1"/>
<ellipse cx="118.344" cy="81" rx="6.45695" ry="6" fill="#683EFC" fill-opacity="0.1"/>
<ellipse cx="118.344" cy="118.5" rx="6.45695" ry="6.5" fill="#683EFC" fill-opacity="0.1"/>
<ellipse cx="118.344" cy="155.5" rx="6.45695" ry="6.5" fill="#683EFC" fill-opacity="0.1"/>
<ellipse cx="118.344" cy="193" rx="6.45695" ry="6" fill="#683EFC" fill-opacity="0.1"/>
<ellipse cx="118.344" cy="230.5" rx="6.45695" ry="6.5" fill="#683EFC" fill-opacity="0.1"/>
<ellipse cx="118.344" cy="268" rx="6.45695" ry="6" fill="#683EFC" fill-opacity="0.1"/>
<ellipse cx="155.099" cy="6" rx="6.45695" ry="6" fill="#683EFC" fill-opacity="0.1"/>
<ellipse cx="155.099" cy="43.5" rx="6.45695" ry="6.5" fill="#683EFC" fill-opacity="0.1"/>
<ellipse cx="155.099" cy="81" rx="6.45695" ry="6" fill="#683EFC" fill-opacity="0.1"/>
<ellipse cx="155.099" cy="118.5" rx="6.45695" ry="6.5" fill="#683EFC" fill-opacity="0.1"/>
<ellipse cx="155.099" cy="155.5" rx="6.45695" ry="6.5" fill="#683EFC" fill-opacity="0.1"/>
<ellipse cx="155.099" cy="193" rx="6.45695" ry="6" fill="#683EFC" fill-opacity="0.1"/>
<ellipse cx="155.099" cy="230.5" rx="6.45695" ry="6.5" fill="#683EFC" fill-opacity="0.1"/>
<ellipse cx="155.099" cy="268" rx="6.45695" ry="6" fill="#683EFC" fill-opacity="0.1"/>
<ellipse cx="192.351" cy="6" rx="5.96026" ry="6" fill="#683EFC" fill-opacity="0.1"/>
<ellipse cx="192.351" cy="43.5" rx="5.96026" ry="6.5" fill="#683EFC" fill-opacity="0.1"/>
<ellipse cx="192.351" cy="81" rx="5.96026" ry="6" fill="#683EFC" fill-opacity="0.1"/>
<ellipse cx="192.351" cy="118.5" rx="5.96026" ry="6.5" fill="#683EFC" fill-opacity="0.1"/>
<ellipse cx="192.351" cy="155.5" rx="5.96026" ry="6.5" fill="#683EFC" fill-opacity="0.1"/>
<ellipse cx="192.351" cy="193" rx="5.96026" ry="6" fill="#683EFC" fill-opacity="0.1"/>
<ellipse cx="192.351" cy="230.5" rx="5.96026" ry="6.5" fill="#683EFC" fill-opacity="0.1"/>
<ellipse cx="192.351" cy="268" rx="5.96026" ry="6" fill="#683EFC" fill-opacity="0.1"/>
<ellipse cx="229.603" cy="6" rx="6.45695" ry="6" fill="#683EFC" fill-opacity="0.1"/>
<ellipse cx="229.603" cy="43.5" rx="6.45695" ry="6.5" fill="#683EFC" fill-opacity="0.1"/>
<ellipse cx="229.603" cy="81" rx="6.45695" ry="6" fill="#683EFC" fill-opacity="0.1"/>
<ellipse cx="229.603" cy="118.5" rx="6.45695" ry="6.5" fill="#683EFC" fill-opacity="0.1"/>
<ellipse cx="229.603" cy="155.5" rx="6.45695" ry="6.5" fill="#683EFC" fill-opacity="0.1"/>
<ellipse cx="229.603" cy="193" rx="6.45695" ry="6" fill="#683EFC" fill-opacity="0.1"/>
<ellipse cx="229.603" cy="230.5" rx="6.45695" ry="6.5" fill="#683EFC" fill-opacity="0.1"/>
<ellipse cx="229.603" cy="268" rx="6.45695" ry="6" fill="#683EFC" fill-opacity="0.1"/>
<ellipse cx="266.854" cy="6" rx="5.96026" ry="6" fill="#683EFC" fill-opacity="0.1"/>
<ellipse cx="266.854" cy="43.5" rx="5.96026" ry="6.5" fill="#683EFC" fill-opacity="0.1"/>
<ellipse cx="266.854" cy="81" rx="5.96026" ry="6" fill="#683EFC" fill-opacity="0.1"/>
<ellipse cx="266.854" cy="118.5" rx="5.96026" ry="6.5" fill="#683EFC" fill-opacity="0.1"/>
<ellipse cx="266.854" cy="155.5" rx="5.96026" ry="6.5" fill="#683EFC" fill-opacity="0.1"/>
<ellipse cx="266.854" cy="193" rx="5.96026" ry="6" fill="#683EFC" fill-opacity="0.1"/>
<ellipse cx="266.854" cy="230.5" rx="5.96026" ry="6.5" fill="#683EFC" fill-opacity="0.1"/>
<ellipse cx="266.854" cy="268" rx="5.96026" ry="6" fill="#683EFC" fill-opacity="0.1"/>
<ellipse cx="303.609" cy="6" rx="5.96026" ry="6" fill="#683EFC" fill-opacity="0.1"/>
<ellipse cx="303.609" cy="43.5" rx="5.96026" ry="6.5" fill="#683EFC" fill-opacity="0.1"/>
<ellipse cx="303.609" cy="81" rx="5.96026" ry="6" fill="#683EFC" fill-opacity="0.1"/>
<ellipse cx="303.609" cy="118.5" rx="5.96026" ry="6.5" fill="#683EFC" fill-opacity="0.1"/>
<ellipse cx="303.609" cy="155.5" rx="5.96026" ry="6.5" fill="#683EFC" fill-opacity="0.1"/>
<ellipse cx="303.609" cy="193" rx="5.96026" ry="6" fill="#683EFC" fill-opacity="0.1"/>
<ellipse cx="303.609" cy="230.5" rx="5.96026" ry="6.5" fill="#683EFC" fill-opacity="0.1"/>
<ellipse cx="303.609" cy="268" rx="5.96026" ry="6" fill="#683EFC" fill-opacity="0.1"/>
<ellipse cx="340.861" cy="6" rx="6.45695" ry="6" fill="#683EFC" fill-opacity="0.1"/>
<ellipse cx="340.861" cy="43.5" rx="6.45695" ry="6.5" fill="#683EFC" fill-opacity="0.1"/>
<ellipse cx="340.861" cy="81" rx="6.45695" ry="6" fill="#683EFC" fill-opacity="0.1"/>
<ellipse cx="340.861" cy="118.5" rx="6.45695" ry="6.5" fill="#683EFC" fill-opacity="0.1"/>
<ellipse cx="340.861" cy="155.5" rx="6.45695" ry="6.5" fill="#683EFC" fill-opacity="0.1"/>
<ellipse cx="340.861" cy="193" rx="6.45695" ry="6" fill="#683EFC" fill-opacity="0.1"/>
<ellipse cx="340.861" cy="230.5" rx="6.45695" ry="6.5" fill="#683EFC" fill-opacity="0.1"/>
<ellipse cx="340.861" cy="268" rx="6.45695" ry="6" fill="#683EFC" fill-opacity="0.1"/>
</svg>
