<svg width="28" height="27" viewBox="0 0 28 27" fill="none" xmlns="http://www.w3.org/2000/svg">
<path d="M7.29144 9.21783C7.98773 9.21783 8.55327 8.65506 8.55463 7.96084C8.55599 7.26663 7.99264 6.70386 7.29636 6.70386C6.60008 6.70386 6.03453 7.26663 6.03317 7.96084C6.03182 8.65506 6.59516 9.21783 7.29144 9.21783Z" fill="#32CD9F"/>
<path d="M11.9092 11.7319C12.3734 11.7319 12.7504 11.3567 12.7513 10.8939C12.7522 10.4311 12.3767 10.0559 11.9125 10.0559C11.4483 10.0559 11.0713 10.4311 11.0704 10.8939C11.0694 11.3567 11.445 11.7319 11.9092 11.7319Z" fill="#32CD9F"/>
<path d="M19.4605 18.4357C19.9247 18.4357 20.3017 18.0606 20.3026 17.5978C20.3035 17.1349 19.9279 16.7598 19.4637 16.7598C18.9996 16.7598 18.6225 17.1349 18.6216 17.5978C18.6207 18.0606 18.9963 18.4357 19.4605 18.4357Z" fill="#32CD9F"/>
<path d="M21.995 11.7319C20.8659 11.7323 19.7507 11.9851 18.7315 12.4718C17.7124 12.9585 16.8152 13.6667 16.1061 14.5442L16.1133 10.8939C16.1161 9.56694 15.8289 8.25583 15.2719 7.05174L14.9739 6.40146L14.2818 6.59504C14.0607 6.66281 13.8312 6.69948 13.6 6.70398C12.9315 6.70331 12.291 6.43823 11.8192 5.96691C11.3474 5.4956 11.0828 4.85654 11.0835 4.19C11.0885 3.95978 11.1257 3.73132 11.194 3.51123L11.3904 2.82072L10.7379 2.52156C9.53121 1.96428 8.2168 1.67576 6.88594 1.67603H2.68351L2.67205 7.54197C2.66493 9.54852 3.32101 11.5002 4.53884 13.0953L4.86509 13.454L5.31901 13.4222C6.25911 13.3682 7.1929 13.6002 7.99674 14.0875C8.80057 14.5747 9.43652 15.2942 9.82036 16.1507L10.0053 16.5671L10.4573 16.6375C10.934 16.7158 11.4162 16.7567 11.8994 16.7599H14.4208L14.4045 25.1398H16.0854L16.092 21.7878H18.6134C20.6189 21.7856 22.5432 20.9903 23.9641 19.5764C25.385 18.1625 26.1864 16.2455 26.1925 14.2459L26.1975 11.7319H21.995ZM11.148 15.0395C10.6119 14.0441 9.81646 13.2117 8.84531 12.6296C7.87415 12.0476 6.76315 11.7375 5.62909 11.7319C4.79211 10.4951 4.34755 9.03535 4.35302 7.54197L4.36121 3.35201H6.88267C7.74991 3.3513 8.61031 3.50161 9.42511 3.79614C9.41027 3.92693 9.40272 4.05841 9.40248 4.19C9.39737 4.77448 9.5158 5.35325 9.75007 5.88859C9.98433 6.42393 10.3292 6.90385 10.7621 7.29708C11.1951 7.69031 11.7065 7.98803 12.2629 8.17086C12.8194 8.35368 13.4085 8.41751 13.9918 8.35817C14.2853 9.1712 14.4344 10.0293 14.4323 10.8939L14.4241 15.0839H11.9027C11.6504 15.083 11.3985 15.0682 11.148 15.0395V15.0395ZM24.5116 14.2459C24.5068 15.8011 23.8834 17.2921 22.7783 18.3918C21.6732 19.4915 20.1765 20.1101 18.6167 20.1118H16.0953L16.0969 19.2739C16.1015 18.0084 16.5159 16.7776 17.2782 15.7644C18.0406 14.7512 19.1102 14.01 20.328 13.6509C20.3032 13.8215 20.314 13.9952 20.3596 14.1613C20.4051 14.3274 20.4845 14.4822 20.5928 14.6163C20.7011 14.7503 20.836 14.8606 20.989 14.9403C21.142 15.0199 21.31 15.0673 21.4823 15.0794C21.6546 15.0915 21.8277 15.0681 21.9907 15.0107C22.1537 14.9532 22.3031 14.8629 22.4297 14.7454C22.5563 14.6279 22.6572 14.4857 22.7264 14.3277C22.7955 14.1696 22.8312 13.9992 22.8314 13.8269C22.8303 13.6838 22.8044 13.5421 22.7549 13.4079H24.5132L24.5116 14.2459Z" fill="#32CD9F"/>
</svg>
