<svg width="44" height="43" viewBox="0 0 44 43" fill="none" xmlns="http://www.w3.org/2000/svg">
<path d="M10.1404 14.6503C11.2543 14.6503 12.1591 13.7559 12.1613 12.6526C12.1635 11.5494 11.2622 10.655 10.1483 10.655C9.03436 10.655 8.12959 11.5494 8.12742 12.6526C8.12525 13.7559 9.0265 14.6503 10.1404 14.6503Z" fill="#32CD9F"/>
<path d="M17.5287 18.646C18.2713 18.646 18.8745 18.0497 18.876 17.3142C18.8774 16.5787 18.2766 15.9825 17.534 15.9825C16.7913 15.9825 16.1882 16.5787 16.1867 17.3142C16.1853 18.0497 16.7861 18.646 17.5287 18.646Z" fill="#32CD9F"/>
<path d="M29.6105 29.301C30.3531 29.301 30.9563 28.7047 30.9577 27.9692C30.9592 27.2337 30.3583 26.6375 29.6157 26.6375C28.8731 26.6375 28.2699 27.2337 28.2685 27.9692C28.267 28.7047 28.8679 29.301 29.6105 29.301Z" fill="#32CD9F"/>
<path d="M33.6658 18.6462C31.8592 18.6468 30.0749 19.0486 28.4443 19.8222C26.8137 20.5957 25.3783 21.7213 24.2438 23.116L24.2552 17.3144C24.2596 15.2053 23.8003 13.1215 22.909 11.2077L22.4323 10.1742L21.325 10.4819C20.9712 10.5896 20.604 10.6479 20.2341 10.655C19.1644 10.6539 18.1398 10.2326 17.3849 9.48354C16.6301 8.73445 16.2067 7.71876 16.2077 6.65938C16.2158 6.29348 16.2753 5.93038 16.3846 5.58056L16.6988 4.4831L15.6548 4.00762C13.7242 3.1219 11.6212 2.66334 9.49183 2.66376H2.76812L2.74977 11.9869C2.73839 15.176 3.78809 18.278 5.73656 20.8132L6.25855 21.3833L6.98481 21.3326C8.48892 21.2469 9.98296 21.6157 11.2691 22.3901C12.5552 23.1645 13.5727 24.308 14.1868 25.6692L14.4827 26.3312L15.2059 26.443C15.9686 26.5674 16.74 26.6324 17.5131 26.6375H21.5474L21.5212 39.9562H24.2106L24.2211 34.6287H28.2554C31.4641 34.6252 34.5429 33.3612 36.8162 31.114C39.0896 28.8668 40.3718 25.8199 40.3816 22.6419L40.3895 18.6462H33.6658ZM16.3109 23.9032C15.4532 22.3212 14.1806 20.9981 12.6267 20.073C11.0729 19.148 9.29537 18.6551 7.48093 18.6462C6.14179 16.6804 5.4305 14.3604 5.43926 11.9869L5.45236 5.32751H9.48659C10.8741 5.32638 12.2508 5.56527 13.5544 6.0334C13.5307 6.24126 13.5186 6.45024 13.5182 6.65938C13.51 7.58834 13.6995 8.5082 14.0743 9.35906C14.4491 10.2099 15.0009 10.9727 15.6936 11.5977C16.3863 12.2227 17.2045 12.6958 18.0948 12.9864C18.9851 13.277 19.9276 13.3784 20.8609 13.2841C21.3305 14.5763 21.569 15.9402 21.5657 17.3144L21.5526 23.9737H17.5184C17.1148 23.9723 16.7117 23.9488 16.3109 23.9032ZM37.6921 22.6419C37.6844 25.1137 36.6871 27.4834 34.919 29.2312C33.1508 30.979 30.7563 31.9622 28.2606 31.965H24.2264L24.229 30.6331C24.2364 28.6219 24.8993 26.6656 26.1191 25.0553C27.3388 23.445 29.0502 22.2669 30.9985 21.6962C30.959 21.9673 30.9762 22.2434 31.0491 22.5074C31.122 22.7713 31.249 23.0175 31.4223 23.2305C31.5956 23.4435 31.8114 23.6188 32.0562 23.7455C32.301 23.8721 32.5697 23.9474 32.8454 23.9667C33.1211 23.9859 33.398 23.9487 33.6588 23.8574C33.9196 23.766 34.1587 23.6225 34.3612 23.4357C34.5637 23.249 34.7253 23.023 34.8359 22.7718C34.9465 22.5207 35.0037 22.2497 35.004 21.9759C35.0021 21.7486 34.9607 21.5233 34.8816 21.31H37.6948L37.6921 22.6419Z" fill="#32CD9F"/>
</svg>
