<svg width="100%" height="100%" viewBox="0 0 1439 604" fill="none" xmlns="http://www.w3.org/2000/svg">
<g clip-path="url(#clip0_234_820)">
<rect width="604" height="1439" transform="translate(0 604) rotate(-90)" fill="#431B56"/>
<ellipse cx="343.225" cy="207.456" rx="343.225" ry="207.456" transform="matrix(0.978711 0.205246 -0.729817 0.683643 522.484 0)" fill="#683EFC" fill-opacity="0.97"/>
<ellipse cx="268.923" cy="490.552" rx="218.378" ry="73.5254" fill="#32CD9F"/>
<ellipse cx="1066.94" cy="490.696" rx="299.055" ry="113.304" fill="#683EFC"/>
<g style="mix-blend-mode:multiply">
<ellipse cx="266.979" cy="425.069" rx="266.979" ry="89.6091" fill="#32CD9F"/>
</g>
<ellipse cx="399.821" cy="371.361" rx="215.786" ry="72.3766" fill="#ECEEFF"/>
<g style="mix-blend-mode:multiply">
<ellipse cx="413.429" cy="405.251" rx="218.378" ry="73.5254" fill="#FF0CF5"/>
</g>
<g filter="url(#filter0_b_234_820)">
<rect x="-34" width="1473" height="604" fill="url(#paint0_linear_234_820)"/>
</g>
<g style="mix-blend-mode:overlay">
<path d="M10.92 386.614C-1.91161 468.558 18.5345 609.535 202.972 517.886C433.519 403.323 1089.73 175.028 943.685 615.04" stroke="white"/>
<path d="M745.737 -850.238C901.189 -206.753 -234.325 -578.98 58.4213 -482.475C849.059 -221.839 530.864 369.995 872.801 668.897" stroke="white"/>
<path d="M17.9811 351.47C9.5474 451.802 -6.30243 574.138 181.271 488.75C429.161 387.298 1052.46 183.653 922.397 619.986" stroke="white"/>
<path d="M25.5213 315.753C21.5548 434.457 -30.661 538.289 160.072 459.15C425.355 370.742 1015.84 191.871 901.743 624.465" stroke="white"/>
<path d="M33.4673 279.531C34.0371 416.589 -54.6141 502.054 139.303 429.153C422.029 353.722 979.796 199.748 881.649 628.546" stroke="white"/>
<path d="M41.7598 242.858C46.9351 398.254 -78.2209 465.49 118.905 398.814C419.124 336.296 944.266 207.34 862.057 632.283" stroke="white"/>
<path d="M50.3495 205.78C60.1991 379.496 -101.53 428.642 98.8276 368.179C416.589 318.506 909.204 214.691 842.917 635.721" stroke="white"/>
<path d="M59.1947 168.336C73.7878 360.356 -124.584 391.549 79.0307 337.286C414.384 300.392 874.567 221.841 824.189 638.899" stroke="white"/>
<path d="M68.2602 130.558C87.6657 340.865 -147.416 354.243 59.479 306.167C412.473 281.987 840.322 228.82 805.836 641.848" stroke="white"/>
<path d="M77.5158 92.4749C101.803 321.051 -170.057 316.752 40.1427 274.852C410.827 263.318 806.439 235.658 787.83 644.597" stroke="white"/>
<path d="M86.9354 54.1105C116.172 300.938 -192.532 279.101 20.996 243.364C409.419 244.41 772.892 242.376 770.144 647.169" stroke="white"/>
<path d="M96.4954 15.4861C130.751 280.547 -214.865 241.311 2.0155 211.724C408.226 225.282 739.657 248.997 752.756 649.584" stroke="white"/>
<path d="M106.178 -23.3805C145.521 259.895 -237.073 203.4 -16.8162 179.949C407.23 205.954 706.718 255.537 735.647 651.861" stroke="white"/>
<path d="M117.95 -60.5805C162.45 240.892 -257.189 167.276 -33.5322 149.95C408.398 188.333 676.042 263.905 720.784 655.907" stroke="white"/>
<path d="M139.4 -88.8991C189.124 230.752 -267.625 140.155 -40.5436 128.94C419.318 179.634 655.218 281.315 715.758 668.937" stroke="white"/>
<path d="M161.087 -117.346C216.105 220.466 -277.819 113.026 -47.2903 107.909C430.552 170.848 634.805 298.757 711.126 681.942" stroke="white"/>
<path d="M182.971 -145.937C243.352 210.015 -287.813 85.8729 -53.8123 86.8417C442.057 161.956 614.765 316.214 706.85 694.902" stroke="white"/>
<path d="M205.023 -174.684C270.834 199.39 -297.636 58.6862 -60.14 65.7272C453.805 152.95 595.066 333.675 702.9 707.81" stroke="white"/>
<path d="M227.216 -203.59C298.526 188.587 -307.312 31.4606 -66.2973 44.5606C465.77 143.825 575.686 351.135 699.25 720.658" stroke="white"/>
<path d="M249.533 -232.659C326.41 177.601 -316.861 4.19305 -72.3033 23.3389C477.933 134.576 556.604 368.591 695.883 733.444" stroke="white"/>
<path d="M271.955 -261.891C354.469 166.433 -326.299 -23.1171 -78.175 2.06122C490.278 125.203 537.805 386.04 692.781 746.167" stroke="white"/>
<path d="M300.946 -298.285C389.163 148.082 -329.163 -57.4681 -77.4494 -26.2707C509.267 108.707 525.751 396.486 696.406 751.827" stroke="white"/>
<path d="M341.796 -347.675C435.785 116.716 -320.162 -104.694 -64.8353 -67.4912C540.19 79.2545 525.735 394.092 712.051 744.59" stroke="white"/>
<path d="M382.571 -397.216C482.401 85.1783 -311.23 -151.951 -52.2662 -108.756C571.115 49.6892 525.821 391.703 727.782 737.3" stroke="white"/>
<path d="M423.268 -446.912C529.007 53.466 -302.37 -199.241 -39.7457 -150.068C602.038 20.0084 526.007 389.315 743.595 729.954" stroke="white"/>
<path d="M463.884 -496.764C575.599 21.5765 -293.584 -246.567 -27.2765 -191.429C632.955 -9.79049 526.291 386.926 759.487 722.549" stroke="white"/>
<path d="M504.415 -546.774C622.175 -10.4922 -284.876 -293.931 -14.8608 -232.841C663.865 -39.7098 526.67 384.533 775.456 715.083" stroke="white"/>
<path d="M544.86 -596.945C668.733 -42.7417 -276.246 -341.333 -2.50082 -274.307C694.764 -69.7511 527.142 382.135 791.5 707.553" stroke="white"/>
<path d="M585.217 -647.276C715.27 -75.1732 -267.697 -388.776 9.80193 -315.826C725.652 -99.9154 527.706 379.73 807.618 699.959" stroke="white"/>
<path d="M625.483 -697.769C761.784 -107.788 -259.231 -436.261 22.0449 -357.401C756.524 -130.205 528.36 377.315 823.806 692.298" stroke="white"/>
<path d="M665.658 -748.425C808.275 -140.588 -250.847 -483.787 34.229 -399.032C787.383 -160.619 529.104 374.89 840.066 684.57" stroke="white"/>
<path d="M705.741 -799.245C854.741 -173.573 -242.548 -531.357 46.3519 -440.72C818.226 -191.161 529.936 372.454 856.395 676.774" stroke="white"/>
</g>
<path d="M532.634 318.2C522.334 318.2 513.534 315.85 506.234 311.15C499.034 306.35 493.584 299.9 489.884 291.8C486.284 283.6 484.484 274.5 484.484 264.5C484.484 254.4 486.334 245.25 490.034 237.05C493.734 228.75 499.184 222.15 506.384 217.25C513.684 212.35 522.434 209.9 532.634 209.9C542.834 209.9 551.534 212.35 558.734 217.25C565.934 222.05 571.384 228.6 575.084 236.9C578.784 245.1 580.634 254.3 580.634 264.5C580.634 274.6 578.784 283.75 575.084 291.95C571.384 300.05 565.884 306.45 558.584 311.15C551.384 315.85 542.734 318.2 532.634 318.2ZM532.634 299.6C540.834 299.6 547.184 296.3 551.684 289.7C556.184 283 558.434 274.5 558.434 264.2C558.434 257.6 557.434 251.6 555.434 246.2C553.534 240.8 550.634 236.5 546.734 233.3C542.834 230.1 538.134 228.5 532.634 228.5C527.134 228.5 522.384 230.15 518.384 233.45C514.484 236.65 511.534 240.95 509.534 246.35C507.534 251.75 506.534 257.75 506.534 264.35C506.534 274.45 508.784 282.85 513.284 289.55C517.884 296.25 524.334 299.6 532.634 299.6ZM625.122 318.2C616.822 318.2 609.822 316.35 604.122 312.65C598.522 308.85 594.322 303.85 591.522 297.65C588.722 291.45 587.322 284.65 587.322 277.25C587.322 269.85 588.672 263.05 591.372 256.85C594.172 250.55 598.422 245.5 604.122 241.7C609.822 237.9 616.822 236 625.122 236C633.422 236 640.422 237.9 646.122 241.7C651.822 245.4 656.072 250.35 658.872 256.55C661.672 262.75 663.072 269.55 663.072 276.95C663.072 284.35 661.672 291.2 658.872 297.5C656.072 303.7 651.822 308.7 646.122 312.5C640.422 316.3 633.422 318.2 625.122 318.2ZM625.122 301.4C630.922 301.4 635.272 299.1 638.172 294.5C641.172 289.8 642.672 283.95 642.672 276.95C642.672 269.95 641.172 264.2 638.172 259.7C635.272 255.1 630.922 252.8 625.122 252.8C619.322 252.8 614.972 255.1 612.072 259.7C609.172 264.2 607.722 269.95 607.722 276.95C607.722 283.95 609.172 289.8 612.072 294.5C615.072 299.1 619.422 301.4 625.122 301.4ZM717.959 318.2C711.259 318.2 706.009 316.65 702.209 313.55C698.409 310.45 695.609 307.05 693.809 303.35H692.609V348.2H671.759V237.8H692.609V250.1H693.809C695.409 246.7 698.109 243.5 701.909 240.5C705.709 237.4 711.009 235.85 717.809 235.85C727.909 235.85 735.659 239.6 741.059 247.1C746.559 254.6 749.309 264.65 749.309 277.25C749.309 289.55 746.559 299.45 741.059 306.95C735.659 314.45 727.959 318.2 717.959 318.2ZM710.459 301.7C716.459 301.7 720.909 299.3 723.809 294.5C726.809 289.7 728.309 283.9 728.309 277.1C728.309 270.5 726.809 264.85 723.809 260.15C720.909 255.35 716.459 252.95 710.459 252.95C704.559 252.95 700.109 255.35 697.109 260.15C694.109 264.95 692.609 270.65 692.609 277.25C692.609 283.95 694.109 289.7 697.109 294.5C700.109 299.3 704.559 301.7 710.459 301.7ZM788.177 318.2C781.477 318.2 775.677 316.95 770.777 314.45C765.977 311.95 762.327 308.7 759.827 304.7C757.327 300.6 756.077 296.3 756.077 291.8V290.9H776.327V291.8C776.327 294.5 777.377 296.9 779.477 299C781.577 301.1 784.627 302.15 788.627 302.15C791.927 302.15 794.577 301.4 796.577 299.9C798.677 298.3 799.727 296.15 799.727 293.45C799.727 291.05 798.827 289.15 797.027 287.75C795.227 286.35 792.977 285.45 790.277 285.05L781.277 283.25C775.377 282.15 770.027 279.8 765.227 276.2C760.427 272.6 758.027 267.15 758.027 259.85C758.027 252.35 760.777 246.5 766.277 242.3C771.777 238 778.827 235.85 787.427 235.85C793.727 235.85 799.177 237 803.777 239.3C808.377 241.6 811.877 244.65 814.277 248.45C816.677 252.15 817.877 256.15 817.877 260.45V261.05H797.627V260.6C797.627 258.2 796.727 256 794.927 254C793.127 251.9 790.377 250.85 786.677 250.85C783.577 250.85 781.077 251.65 779.177 253.25C777.277 254.85 776.327 256.95 776.327 259.55C776.327 261.95 777.277 263.85 779.177 265.25C781.177 266.65 783.627 267.6 786.527 268.1L796.427 270.05C802.827 271.45 808.227 274 812.627 277.7C817.027 281.3 819.227 286.45 819.227 293.15C819.227 298.15 817.877 302.55 815.177 306.35C812.477 310.15 808.727 313.1 803.927 315.2C799.227 317.2 793.977 318.2 788.177 318.2ZM828.548 216.2V207.2H849.848V216.2L846.548 282.35H831.548L828.548 216.2ZM839.198 318.5C835.998 318.5 833.348 317.4 831.248 315.2C829.148 313 828.098 310.35 828.098 307.25C828.098 304.15 829.148 301.5 831.248 299.3C833.348 297.1 835.998 296 839.198 296C842.398 296 845.048 297.1 847.148 299.3C849.348 301.5 850.448 304.15 850.448 307.25C850.448 310.35 849.348 313 847.148 315.2C845.048 317.4 842.398 318.5 839.198 318.5ZM205.193 408.74L171.203 408.63V397.08L201.013 350H220.153V397.08H229.723V408.74H220.153V427H205.193V408.74ZM205.303 396.86V367.93L186.493 396.86H205.303ZM264.402 428.54C254.428 428.54 246.985 425.277 242.072 418.75C237.232 412.223 234.812 403.607 234.812 392.9V383.88C234.812 373.173 237.232 364.593 242.072 358.14C246.985 351.687 254.428 348.46 264.402 348.46C274.448 348.46 281.892 351.723 286.732 358.25C291.645 364.703 294.102 373.247 294.102 383.88V392.9C294.102 403.607 291.645 412.223 286.732 418.75C281.818 425.277 274.375 428.54 264.402 428.54ZM264.402 415.34C268.802 415.34 271.992 413.507 273.972 409.84C276.025 406.1 277.052 400.637 277.052 393.45V383.22C277.052 376.107 276.025 370.753 273.972 367.16C271.992 363.493 268.802 361.66 264.402 361.66C260.075 361.66 256.885 363.493 254.832 367.16C252.852 370.753 251.862 376.107 251.862 383.22V393.45C251.862 400.637 252.852 406.1 254.832 409.84C256.885 413.507 260.075 415.34 264.402 415.34ZM332.282 408.74L298.292 408.63V397.08L328.102 350H347.242V397.08H356.812V408.74H347.242V427H332.282V408.74ZM332.392 396.86V367.93L313.582 396.86H332.392ZM391.212 386.63H430.922V398.73H391.212V386.63ZM494.969 350C501.129 350 506.299 351.247 510.479 353.74C514.659 356.233 517.739 359.497 519.719 363.53C521.699 367.563 522.689 371.89 522.689 376.51C522.689 381.13 521.699 385.42 519.719 389.38C517.812 393.267 514.769 396.42 510.589 398.84C506.409 401.26 501.202 402.47 494.969 402.47H481.439V427H466.479V350H494.969ZM492.659 389.93C496.985 389.93 500.615 388.903 503.549 386.85C506.482 384.797 507.949 381.35 507.949 376.51C507.949 371.67 506.482 368.297 503.549 366.39C500.689 364.41 497.059 363.42 492.659 363.42H481.439V389.93H492.659ZM546.994 427.88C539.808 427.88 534.198 425.13 530.164 419.63C526.131 414.13 524.114 406.87 524.114 397.85C524.114 388.683 526.131 381.35 530.164 375.85C534.271 370.277 539.991 367.49 547.324 367.49C552.238 367.49 556.088 368.627 558.874 370.9C561.661 373.1 563.641 375.447 564.814 377.94H565.694V368.92H580.984V427H565.694V416.99H564.814C563.494 419.703 561.441 422.197 558.654 424.47C555.868 426.743 551.981 427.88 546.994 427.88ZM552.604 415.56C556.931 415.56 560.194 413.8 562.394 410.28C564.594 406.76 565.694 402.543 565.694 397.63C565.694 392.717 564.594 388.537 562.394 385.09C560.268 381.643 557.004 379.92 552.604 379.92C548.204 379.92 544.941 381.643 542.814 385.09C540.688 388.537 539.624 392.717 539.624 397.63C539.624 402.617 540.688 406.87 542.814 410.39C544.941 413.837 548.204 415.56 552.604 415.56ZM618.067 451.42C615.354 451.42 613.3 451.237 611.907 450.87C610.514 450.577 609.12 450.173 607.727 449.66V437.45C608.46 437.67 609.634 437.89 611.247 438.11C612.934 438.403 614.547 438.55 616.087 438.55C621.22 438.55 624.814 437.083 626.867 434.15C628.994 431.29 630.057 427.697 630.057 423.37V415.67H629.177C628.004 418.31 625.95 420.767 623.017 423.04C620.084 425.313 616.197 426.45 611.357 426.45C606.664 426.45 602.594 425.24 599.147 422.82C595.7 420.327 593.06 416.88 591.227 412.48C589.394 408.007 588.477 402.873 588.477 397.08C588.477 391.14 589.394 385.97 591.227 381.57C593.06 377.097 595.7 373.65 599.147 371.23C602.667 368.737 606.774 367.49 611.467 367.49C616.38 367.49 620.304 368.7 623.237 371.12C626.17 373.467 628.15 375.96 629.177 378.6H630.057V368.92H645.347V423.37C645.347 427.11 644.65 431.07 643.257 435.25C641.937 439.503 639.26 443.243 635.227 446.47C631.194 449.77 625.474 451.42 618.067 451.42ZM617.077 414.13C621.33 414.13 624.557 412.407 626.757 408.96C628.957 405.513 630.057 401.48 630.057 396.86C630.057 392.313 628.957 388.353 626.757 384.98C624.63 381.533 621.404 379.81 617.077 379.81C612.75 379.81 609.487 381.533 607.287 384.98C605.087 388.353 603.987 392.313 603.987 396.86C603.987 401.48 605.05 405.513 607.177 408.96C609.377 412.407 612.677 414.13 617.077 414.13ZM680.869 427.88C674.783 427.88 669.649 426.487 665.469 423.7C661.289 420.84 658.173 417.137 656.119 412.59C654.139 407.97 653.149 403.02 653.149 397.74C653.149 392.46 654.139 387.547 656.119 383C658.173 378.38 661.289 374.64 665.469 371.78C669.649 368.92 674.819 367.49 680.979 367.49C689.119 367.49 695.573 370.093 700.339 375.3C705.179 380.507 707.599 388.023 707.599 397.85V402.03H667.779V402.91C667.779 406.43 668.989 409.473 671.409 412.04C673.829 414.533 676.873 415.78 680.539 415.78C683.399 415.78 685.819 415.12 687.799 413.8C689.779 412.48 691.209 410.683 692.089 408.41H707.049C705.509 414.13 702.503 418.823 698.029 422.49C693.556 426.083 687.836 427.88 680.869 427.88ZM692.969 392.13C692.823 387.51 691.649 384.1 689.449 381.9C687.249 379.7 684.353 378.6 680.759 378.6C676.946 378.6 673.939 379.81 671.739 382.23C669.539 384.65 668.366 387.95 668.219 392.13H692.969ZM734.84 368.92H750.24V377.83H751.01C752.33 374.97 754.457 372.55 757.39 370.57C760.323 368.517 763.88 367.49 768.06 367.49C775.613 367.49 780.93 369.91 784.01 374.75C787.163 379.59 788.74 385.09 788.74 391.25V427H773.56V393.78C773.56 389.527 772.533 386.19 770.48 383.77C768.5 381.35 765.677 380.14 762.01 380.14C758.123 380.14 755.19 381.423 753.21 383.99C751.23 386.483 750.24 389.747 750.24 393.78V427H734.84V368.92ZM822.679 427.88C816.593 427.88 811.459 426.523 807.279 423.81C803.173 421.023 800.093 417.357 798.039 412.81C795.986 408.263 794.959 403.277 794.959 397.85C794.959 392.423 795.949 387.437 797.929 382.89C799.983 378.27 803.099 374.567 807.279 371.78C811.459 368.993 816.593 367.6 822.679 367.6C828.766 367.6 833.899 368.993 838.079 371.78C842.259 374.493 845.376 378.123 847.429 382.67C849.483 387.217 850.509 392.203 850.509 397.63C850.509 403.057 849.483 408.08 847.429 412.7C845.376 417.247 842.259 420.913 838.079 423.7C833.899 426.487 828.766 427.88 822.679 427.88ZM822.679 415.56C826.933 415.56 830.123 413.873 832.249 410.5C834.449 407.053 835.549 402.763 835.549 397.63C835.549 392.497 834.449 388.28 832.249 384.98C830.123 381.607 826.933 379.92 822.679 379.92C818.426 379.92 815.236 381.607 813.109 384.98C810.983 388.28 809.919 392.497 809.919 397.63C809.919 402.763 810.983 407.053 813.109 410.5C815.309 413.873 818.499 415.56 822.679 415.56ZM878.66 380.8V406.65C878.66 409.217 878.77 411.123 878.99 412.37C879.283 413.617 880.016 414.607 881.19 415.34C882.363 416.073 884.27 416.44 886.91 416.44C888.45 416.44 890.026 416.293 891.64 416V426.56C890.833 426.707 889.366 426.89 887.24 427.11C885.186 427.33 883.17 427.44 881.19 427.44C875.836 427.44 871.84 426.67 869.2 425.13C866.633 423.517 865.02 421.537 864.36 419.19C863.7 416.77 863.37 413.69 863.37 409.95V380.8H853.69V368.92H863.48V350H878.66V368.92H891.64V380.8H878.66ZM947.56 356.38C945.287 356.38 943.6 356.857 942.5 357.81C941.473 358.69 940.813 359.79 940.52 361.11C940.3 362.357 940.19 364.043 940.19 366.17V368.92H953.17V380.8H940.19V427H925.01V380.8H917.64V368.92H925.01V363.09C925.01 358.617 926.22 354.62 928.64 351.1C931.06 347.507 935.973 345.71 943.38 345.71C945.213 345.71 947.12 345.82 949.1 346.04C951.153 346.26 952.51 346.517 953.17 346.81V356.82C951.41 356.527 949.54 356.38 947.56 356.38ZM981.036 427.88C974.95 427.88 969.816 426.523 965.636 423.81C961.53 421.023 958.45 417.357 956.396 412.81C954.343 408.263 953.316 403.277 953.316 397.85C953.316 392.423 954.306 387.437 956.286 382.89C958.34 378.27 961.456 374.567 965.636 371.78C969.816 368.993 974.95 367.6 981.036 367.6C987.123 367.6 992.256 368.993 996.436 371.78C1000.62 374.493 1003.73 378.123 1005.79 382.67C1007.84 387.217 1008.87 392.203 1008.87 397.63C1008.87 403.057 1007.84 408.08 1005.79 412.7C1003.73 417.247 1000.62 420.913 996.436 423.7C992.256 426.487 987.123 427.88 981.036 427.88ZM981.036 415.56C985.29 415.56 988.48 413.873 990.606 410.5C992.806 407.053 993.906 402.763 993.906 397.63C993.906 392.497 992.806 388.28 990.606 384.98C988.48 381.607 985.29 379.92 981.036 379.92C976.783 379.92 973.593 381.607 971.466 384.98C969.34 388.28 968.276 392.497 968.276 397.63C968.276 402.763 969.34 407.053 971.466 410.5C973.666 413.873 976.856 415.56 981.036 415.56ZM1068.04 427H1052.75V417.76H1051.98C1050.66 420.62 1048.57 423.077 1045.71 425.13C1042.92 427.11 1039.47 428.1 1035.37 428.1C1027.96 428.1 1022.75 425.68 1019.75 420.84C1016.74 415.927 1015.24 410.427 1015.24 404.34V368.92H1030.42V401.81C1030.42 405.99 1031.37 409.327 1033.28 411.82C1035.18 414.24 1037.9 415.45 1041.42 415.45C1045.23 415.45 1048.05 414.167 1049.89 411.6C1051.79 409.033 1052.75 405.77 1052.75 401.81V368.92H1068.04V427ZM1076.58 368.92H1091.98V377.83H1092.75C1094.07 374.97 1096.2 372.55 1099.13 370.57C1102.06 368.517 1105.62 367.49 1109.8 367.49C1117.35 367.49 1122.67 369.91 1125.75 374.75C1128.9 379.59 1130.48 385.09 1130.48 391.25V427H1115.3V393.78C1115.3 389.527 1114.27 386.19 1112.22 383.77C1110.24 381.35 1107.42 380.14 1103.75 380.14C1099.86 380.14 1096.93 381.423 1094.95 383.99C1092.97 386.483 1091.98 389.747 1091.98 393.78V427H1076.58V368.92ZM1159.58 427.88C1152.24 427.88 1146.56 425.13 1142.53 419.63C1138.57 414.13 1136.59 406.87 1136.59 397.85C1136.59 388.61 1138.57 381.24 1142.53 375.74C1146.56 370.24 1152.28 367.49 1159.69 367.49C1164.67 367.49 1168.56 368.627 1171.35 370.9C1174.13 373.1 1176.11 375.447 1177.29 377.94H1178.17V344.39H1193.46V427H1178.17V416.99H1177.29C1175.97 419.703 1173.91 422.197 1171.13 424.47C1168.34 426.743 1164.49 427.88 1159.58 427.88ZM1165.08 415.78C1169.4 415.78 1172.67 414.02 1174.87 410.5C1177.07 406.98 1178.17 402.763 1178.17 397.85C1178.17 393.01 1177.07 388.83 1174.87 385.31C1172.67 381.79 1169.4 380.03 1165.08 380.03C1160.68 380.03 1157.38 381.79 1155.18 385.31C1153.05 388.757 1151.99 392.9 1151.99 397.74C1151.99 402.727 1153.05 406.98 1155.18 410.5C1157.38 414.02 1160.68 415.78 1165.08 415.78Z" fill="#683EFC"/>
<path d="M532.634 318.2C522.334 318.2 513.534 315.85 506.234 311.15C499.034 306.35 493.584 299.9 489.884 291.8C486.284 283.6 484.484 274.5 484.484 264.5C484.484 254.4 486.334 245.25 490.034 237.05C493.734 228.75 499.184 222.15 506.384 217.25C513.684 212.35 522.434 209.9 532.634 209.9C542.834 209.9 551.534 212.35 558.734 217.25C565.934 222.05 571.384 228.6 575.084 236.9C578.784 245.1 580.634 254.3 580.634 264.5C580.634 274.6 578.784 283.75 575.084 291.95C571.384 300.05 565.884 306.45 558.584 311.15C551.384 315.85 542.734 318.2 532.634 318.2ZM532.634 299.6C540.834 299.6 547.184 296.3 551.684 289.7C556.184 283 558.434 274.5 558.434 264.2C558.434 257.6 557.434 251.6 555.434 246.2C553.534 240.8 550.634 236.5 546.734 233.3C542.834 230.1 538.134 228.5 532.634 228.5C527.134 228.5 522.384 230.15 518.384 233.45C514.484 236.65 511.534 240.95 509.534 246.35C507.534 251.75 506.534 257.75 506.534 264.35C506.534 274.45 508.784 282.85 513.284 289.55C517.884 296.25 524.334 299.6 532.634 299.6ZM625.122 318.2C616.822 318.2 609.822 316.35 604.122 312.65C598.522 308.85 594.322 303.85 591.522 297.65C588.722 291.45 587.322 284.65 587.322 277.25C587.322 269.85 588.672 263.05 591.372 256.85C594.172 250.55 598.422 245.5 604.122 241.7C609.822 237.9 616.822 236 625.122 236C633.422 236 640.422 237.9 646.122 241.7C651.822 245.4 656.072 250.35 658.872 256.55C661.672 262.75 663.072 269.55 663.072 276.95C663.072 284.35 661.672 291.2 658.872 297.5C656.072 303.7 651.822 308.7 646.122 312.5C640.422 316.3 633.422 318.2 625.122 318.2ZM625.122 301.4C630.922 301.4 635.272 299.1 638.172 294.5C641.172 289.8 642.672 283.95 642.672 276.95C642.672 269.95 641.172 264.2 638.172 259.7C635.272 255.1 630.922 252.8 625.122 252.8C619.322 252.8 614.972 255.1 612.072 259.7C609.172 264.2 607.722 269.95 607.722 276.95C607.722 283.95 609.172 289.8 612.072 294.5C615.072 299.1 619.422 301.4 625.122 301.4ZM717.959 318.2C711.259 318.2 706.009 316.65 702.209 313.55C698.409 310.45 695.609 307.05 693.809 303.35H692.609V348.2H671.759V237.8H692.609V250.1H693.809C695.409 246.7 698.109 243.5 701.909 240.5C705.709 237.4 711.009 235.85 717.809 235.85C727.909 235.85 735.659 239.6 741.059 247.1C746.559 254.6 749.309 264.65 749.309 277.25C749.309 289.55 746.559 299.45 741.059 306.95C735.659 314.45 727.959 318.2 717.959 318.2ZM710.459 301.7C716.459 301.7 720.909 299.3 723.809 294.5C726.809 289.7 728.309 283.9 728.309 277.1C728.309 270.5 726.809 264.85 723.809 260.15C720.909 255.35 716.459 252.95 710.459 252.95C704.559 252.95 700.109 255.35 697.109 260.15C694.109 264.95 692.609 270.65 692.609 277.25C692.609 283.95 694.109 289.7 697.109 294.5C700.109 299.3 704.559 301.7 710.459 301.7ZM788.177 318.2C781.477 318.2 775.677 316.95 770.777 314.45C765.977 311.95 762.327 308.7 759.827 304.7C757.327 300.6 756.077 296.3 756.077 291.8V290.9H776.327V291.8C776.327 294.5 777.377 296.9 779.477 299C781.577 301.1 784.627 302.15 788.627 302.15C791.927 302.15 794.577 301.4 796.577 299.9C798.677 298.3 799.727 296.15 799.727 293.45C799.727 291.05 798.827 289.15 797.027 287.75C795.227 286.35 792.977 285.45 790.277 285.05L781.277 283.25C775.377 282.15 770.027 279.8 765.227 276.2C760.427 272.6 758.027 267.15 758.027 259.85C758.027 252.35 760.777 246.5 766.277 242.3C771.777 238 778.827 235.85 787.427 235.85C793.727 235.85 799.177 237 803.777 239.3C808.377 241.6 811.877 244.65 814.277 248.45C816.677 252.15 817.877 256.15 817.877 260.45V261.05H797.627V260.6C797.627 258.2 796.727 256 794.927 254C793.127 251.9 790.377 250.85 786.677 250.85C783.577 250.85 781.077 251.65 779.177 253.25C777.277 254.85 776.327 256.95 776.327 259.55C776.327 261.95 777.277 263.85 779.177 265.25C781.177 266.65 783.627 267.6 786.527 268.1L796.427 270.05C802.827 271.45 808.227 274 812.627 277.7C817.027 281.3 819.227 286.45 819.227 293.15C819.227 298.15 817.877 302.55 815.177 306.35C812.477 310.15 808.727 313.1 803.927 315.2C799.227 317.2 793.977 318.2 788.177 318.2ZM828.548 216.2V207.2H849.848V216.2L846.548 282.35H831.548L828.548 216.2ZM839.198 318.5C835.998 318.5 833.348 317.4 831.248 315.2C829.148 313 828.098 310.35 828.098 307.25C828.098 304.15 829.148 301.5 831.248 299.3C833.348 297.1 835.998 296 839.198 296C842.398 296 845.048 297.1 847.148 299.3C849.348 301.5 850.448 304.15 850.448 307.25C850.448 310.35 849.348 313 847.148 315.2C845.048 317.4 842.398 318.5 839.198 318.5ZM205.193 408.74L171.203 408.63V397.08L201.013 350H220.153V397.08H229.723V408.74H220.153V427H205.193V408.74ZM205.303 396.86V367.93L186.493 396.86H205.303ZM264.402 428.54C254.428 428.54 246.985 425.277 242.072 418.75C237.232 412.223 234.812 403.607 234.812 392.9V383.88C234.812 373.173 237.232 364.593 242.072 358.14C246.985 351.687 254.428 348.46 264.402 348.46C274.448 348.46 281.892 351.723 286.732 358.25C291.645 364.703 294.102 373.247 294.102 383.88V392.9C294.102 403.607 291.645 412.223 286.732 418.75C281.818 425.277 274.375 428.54 264.402 428.54ZM264.402 415.34C268.802 415.34 271.992 413.507 273.972 409.84C276.025 406.1 277.052 400.637 277.052 393.45V383.22C277.052 376.107 276.025 370.753 273.972 367.16C271.992 363.493 268.802 361.66 264.402 361.66C260.075 361.66 256.885 363.493 254.832 367.16C252.852 370.753 251.862 376.107 251.862 383.22V393.45C251.862 400.637 252.852 406.1 254.832 409.84C256.885 413.507 260.075 415.34 264.402 415.34ZM332.282 408.74L298.292 408.63V397.08L328.102 350H347.242V397.08H356.812V408.74H347.242V427H332.282V408.74ZM332.392 396.86V367.93L313.582 396.86H332.392ZM391.212 386.63H430.922V398.73H391.212V386.63ZM494.969 350C501.129 350 506.299 351.247 510.479 353.74C514.659 356.233 517.739 359.497 519.719 363.53C521.699 367.563 522.689 371.89 522.689 376.51C522.689 381.13 521.699 385.42 519.719 389.38C517.812 393.267 514.769 396.42 510.589 398.84C506.409 401.26 501.202 402.47 494.969 402.47H481.439V427H466.479V350H494.969ZM492.659 389.93C496.985 389.93 500.615 388.903 503.549 386.85C506.482 384.797 507.949 381.35 507.949 376.51C507.949 371.67 506.482 368.297 503.549 366.39C500.689 364.41 497.059 363.42 492.659 363.42H481.439V389.93H492.659ZM546.994 427.88C539.808 427.88 534.198 425.13 530.164 419.63C526.131 414.13 524.114 406.87 524.114 397.85C524.114 388.683 526.131 381.35 530.164 375.85C534.271 370.277 539.991 367.49 547.324 367.49C552.238 367.49 556.088 368.627 558.874 370.9C561.661 373.1 563.641 375.447 564.814 377.94H565.694V368.92H580.984V427H565.694V416.99H564.814C563.494 419.703 561.441 422.197 558.654 424.47C555.868 426.743 551.981 427.88 546.994 427.88ZM552.604 415.56C556.931 415.56 560.194 413.8 562.394 410.28C564.594 406.76 565.694 402.543 565.694 397.63C565.694 392.717 564.594 388.537 562.394 385.09C560.268 381.643 557.004 379.92 552.604 379.92C548.204 379.92 544.941 381.643 542.814 385.09C540.688 388.537 539.624 392.717 539.624 397.63C539.624 402.617 540.688 406.87 542.814 410.39C544.941 413.837 548.204 415.56 552.604 415.56ZM618.067 451.42C615.354 451.42 613.3 451.237 611.907 450.87C610.514 450.577 609.12 450.173 607.727 449.66V437.45C608.46 437.67 609.634 437.89 611.247 438.11C612.934 438.403 614.547 438.55 616.087 438.55C621.22 438.55 624.814 437.083 626.867 434.15C628.994 431.29 630.057 427.697 630.057 423.37V415.67H629.177C628.004 418.31 625.95 420.767 623.017 423.04C620.084 425.313 616.197 426.45 611.357 426.45C606.664 426.45 602.594 425.24 599.147 422.82C595.7 420.327 593.06 416.88 591.227 412.48C589.394 408.007 588.477 402.873 588.477 397.08C588.477 391.14 589.394 385.97 591.227 381.57C593.06 377.097 595.7 373.65 599.147 371.23C602.667 368.737 606.774 367.49 611.467 367.49C616.38 367.49 620.304 368.7 623.237 371.12C626.17 373.467 628.15 375.96 629.177 378.6H630.057V368.92H645.347V423.37C645.347 427.11 644.65 431.07 643.257 435.25C641.937 439.503 639.26 443.243 635.227 446.47C631.194 449.77 625.474 451.42 618.067 451.42ZM617.077 414.13C621.33 414.13 624.557 412.407 626.757 408.96C628.957 405.513 630.057 401.48 630.057 396.86C630.057 392.313 628.957 388.353 626.757 384.98C624.63 381.533 621.404 379.81 617.077 379.81C612.75 379.81 609.487 381.533 607.287 384.98C605.087 388.353 603.987 392.313 603.987 396.86C603.987 401.48 605.05 405.513 607.177 408.96C609.377 412.407 612.677 414.13 617.077 414.13ZM680.869 427.88C674.783 427.88 669.649 426.487 665.469 423.7C661.289 420.84 658.173 417.137 656.119 412.59C654.139 407.97 653.149 403.02 653.149 397.74C653.149 392.46 654.139 387.547 656.119 383C658.173 378.38 661.289 374.64 665.469 371.78C669.649 368.92 674.819 367.49 680.979 367.49C689.119 367.49 695.573 370.093 700.339 375.3C705.179 380.507 707.599 388.023 707.599 397.85V402.03H667.779V402.91C667.779 406.43 668.989 409.473 671.409 412.04C673.829 414.533 676.873 415.78 680.539 415.78C683.399 415.78 685.819 415.12 687.799 413.8C689.779 412.48 691.209 410.683 692.089 408.41H707.049C705.509 414.13 702.503 418.823 698.029 422.49C693.556 426.083 687.836 427.88 680.869 427.88ZM692.969 392.13C692.823 387.51 691.649 384.1 689.449 381.9C687.249 379.7 684.353 378.6 680.759 378.6C676.946 378.6 673.939 379.81 671.739 382.23C669.539 384.65 668.366 387.95 668.219 392.13H692.969ZM734.84 368.92H750.24V377.83H751.01C752.33 374.97 754.457 372.55 757.39 370.57C760.323 368.517 763.88 367.49 768.06 367.49C775.613 367.49 780.93 369.91 784.01 374.75C787.163 379.59 788.74 385.09 788.74 391.25V427H773.56V393.78C773.56 389.527 772.533 386.19 770.48 383.77C768.5 381.35 765.677 380.14 762.01 380.14C758.123 380.14 755.19 381.423 753.21 383.99C751.23 386.483 750.24 389.747 750.24 393.78V427H734.84V368.92ZM822.679 427.88C816.593 427.88 811.459 426.523 807.279 423.81C803.173 421.023 800.093 417.357 798.039 412.81C795.986 408.263 794.959 403.277 794.959 397.85C794.959 392.423 795.949 387.437 797.929 382.89C799.983 378.27 803.099 374.567 807.279 371.78C811.459 368.993 816.593 367.6 822.679 367.6C828.766 367.6 833.899 368.993 838.079 371.78C842.259 374.493 845.376 378.123 847.429 382.67C849.483 387.217 850.509 392.203 850.509 397.63C850.509 403.057 849.483 408.08 847.429 412.7C845.376 417.247 842.259 420.913 838.079 423.7C833.899 426.487 828.766 427.88 822.679 427.88ZM822.679 415.56C826.933 415.56 830.123 413.873 832.249 410.5C834.449 407.053 835.549 402.763 835.549 397.63C835.549 392.497 834.449 388.28 832.249 384.98C830.123 381.607 826.933 379.92 822.679 379.92C818.426 379.92 815.236 381.607 813.109 384.98C810.983 388.28 809.919 392.497 809.919 397.63C809.919 402.763 810.983 407.053 813.109 410.5C815.309 413.873 818.499 415.56 822.679 415.56ZM878.66 380.8V406.65C878.66 409.217 878.77 411.123 878.99 412.37C879.283 413.617 880.016 414.607 881.19 415.34C882.363 416.073 884.27 416.44 886.91 416.44C888.45 416.44 890.026 416.293 891.64 416V426.56C890.833 426.707 889.366 426.89 887.24 427.11C885.186 427.33 883.17 427.44 881.19 427.44C875.836 427.44 871.84 426.67 869.2 425.13C866.633 423.517 865.02 421.537 864.36 419.19C863.7 416.77 863.37 413.69 863.37 409.95V380.8H853.69V368.92H863.48V350H878.66V368.92H891.64V380.8H878.66ZM947.56 356.38C945.287 356.38 943.6 356.857 942.5 357.81C941.473 358.69 940.813 359.79 940.52 361.11C940.3 362.357 940.19 364.043 940.19 366.17V368.92H953.17V380.8H940.19V427H925.01V380.8H917.64V368.92H925.01V363.09C925.01 358.617 926.22 354.62 928.64 351.1C931.06 347.507 935.973 345.71 943.38 345.71C945.213 345.71 947.12 345.82 949.1 346.04C951.153 346.26 952.51 346.517 953.17 346.81V356.82C951.41 356.527 949.54 356.38 947.56 356.38ZM981.036 427.88C974.95 427.88 969.816 426.523 965.636 423.81C961.53 421.023 958.45 417.357 956.396 412.81C954.343 408.263 953.316 403.277 953.316 397.85C953.316 392.423 954.306 387.437 956.286 382.89C958.34 378.27 961.456 374.567 965.636 371.78C969.816 368.993 974.95 367.6 981.036 367.6C987.123 367.6 992.256 368.993 996.436 371.78C1000.62 374.493 1003.73 378.123 1005.79 382.67C1007.84 387.217 1008.87 392.203 1008.87 397.63C1008.87 403.057 1007.84 408.08 1005.79 412.7C1003.73 417.247 1000.62 420.913 996.436 423.7C992.256 426.487 987.123 427.88 981.036 427.88ZM981.036 415.56C985.29 415.56 988.48 413.873 990.606 410.5C992.806 407.053 993.906 402.763 993.906 397.63C993.906 392.497 992.806 388.28 990.606 384.98C988.48 381.607 985.29 379.92 981.036 379.92C976.783 379.92 973.593 381.607 971.466 384.98C969.34 388.28 968.276 392.497 968.276 397.63C968.276 402.763 969.34 407.053 971.466 410.5C973.666 413.873 976.856 415.56 981.036 415.56ZM1068.04 427H1052.75V417.76H1051.98C1050.66 420.62 1048.57 423.077 1045.71 425.13C1042.92 427.11 1039.47 428.1 1035.37 428.1C1027.96 428.1 1022.75 425.68 1019.75 420.84C1016.74 415.927 1015.24 410.427 1015.24 404.34V368.92H1030.42V401.81C1030.42 405.99 1031.37 409.327 1033.28 411.82C1035.18 414.24 1037.9 415.45 1041.42 415.45C1045.23 415.45 1048.05 414.167 1049.89 411.6C1051.79 409.033 1052.75 405.77 1052.75 401.81V368.92H1068.04V427ZM1076.58 368.92H1091.98V377.83H1092.75C1094.07 374.97 1096.2 372.55 1099.13 370.57C1102.06 368.517 1105.62 367.49 1109.8 367.49C1117.35 367.49 1122.67 369.91 1125.75 374.75C1128.9 379.59 1130.48 385.09 1130.48 391.25V427H1115.3V393.78C1115.3 389.527 1114.27 386.19 1112.22 383.77C1110.24 381.35 1107.42 380.14 1103.75 380.14C1099.86 380.14 1096.93 381.423 1094.95 383.99C1092.97 386.483 1091.98 389.747 1091.98 393.78V427H1076.58V368.92ZM1159.58 427.88C1152.24 427.88 1146.56 425.13 1142.53 419.63C1138.57 414.13 1136.59 406.87 1136.59 397.85C1136.59 388.61 1138.57 381.24 1142.53 375.74C1146.56 370.24 1152.28 367.49 1159.69 367.49C1164.67 367.49 1168.56 368.627 1171.35 370.9C1174.13 373.1 1176.11 375.447 1177.29 377.94H1178.17V344.39H1193.46V427H1178.17V416.99H1177.29C1175.97 419.703 1173.91 422.197 1171.13 424.47C1168.34 426.743 1164.49 427.88 1159.58 427.88ZM1165.08 415.78C1169.4 415.78 1172.67 414.02 1174.87 410.5C1177.07 406.98 1178.17 402.763 1178.17 397.85C1178.17 393.01 1177.07 388.83 1174.87 385.31C1172.67 381.79 1169.4 380.03 1165.08 380.03C1160.68 380.03 1157.38 381.79 1155.18 385.31C1153.05 388.757 1151.99 392.9 1151.99 397.74C1151.99 402.727 1153.05 406.98 1155.18 410.5C1157.38 414.02 1160.68 415.78 1165.08 415.78Z" fill="url(#paint1_linear_234_820)"/>
</g>
<defs>
<filter id="filter0_b_234_820" x="-334" y="-300" width="2073" height="1204" filterUnits="userSpaceOnUse" color-interpolation-filters="sRGB">
<feFlood flood-opacity="0" result="BackgroundImageFix"/>
<feGaussianBlur in="BackgroundImageFix" stdDeviation="150"/>
<feComposite in2="SourceAlpha" operator="in" result="effect1_backgroundBlur_234_820"/>
<feBlend mode="normal" in="SourceGraphic" in2="effect1_backgroundBlur_234_820" result="shape"/>
</filter>
<linearGradient id="paint0_linear_234_820" x1="702.5" y1="0" x2="702.5" y2="604" gradientUnits="userSpaceOnUse">
<stop offset="0.5625" stop-color="#00173F"/>
<stop offset="1" stop-color="#00173F" stop-opacity="0"/>
</linearGradient>
<linearGradient id="paint1_linear_234_820" x1="368.21" y1="289.546" x2="896.558" y2="608.923" gradientUnits="userSpaceOnUse">
<stop stop-color="#32CD9F" stop-opacity="0.69"/>
<stop offset="0.338542" stop-color="#32CD9F"/>
<stop offset="1" stop-color="#0DDDFF" stop-opacity="0"/>
</linearGradient>
<clipPath id="clip0_234_820">
<rect width="604" height="1439" fill="white" transform="translate(0 604) rotate(-90)"/>
</clipPath>
</defs>
</svg>
