<svg width="121" height="46" viewBox="0 0 121 46" fill="none" xmlns="http://www.w3.org/2000/svg">
<path d="M12 44C11 44 10.1222 43.6804 9.36665 43.0413C8.61109 42.4027 8.1722 41.5889 8.04998 40.6C7.24998 40.4444 6.59731 40.0556 6.09198 39.4333C5.5862 38.8111 5.33331 38.1 5.33331 37.3C5.33331 36.3778 5.65842 35.5973 6.30865 34.9587C6.95842 34.3196 7.74442 34 8.66665 34H10.3333C10.4222 34 10.5 33.9667 10.5666 33.9C10.6333 33.8333 10.6666 33.7556 10.6666 33.6667C10.6666 33.5778 10.6333 33.5 10.5666 33.4333C10.5 33.3667 10.4222 33.3333 10.3333 33.3333H9.33331C9.14442 33.3333 8.98598 33.2693 8.85798 33.1413C8.73042 33.0138 8.66665 32.8556 8.66665 32.6667C8.66665 32.4778 8.73042 32.3193 8.85798 32.1913C8.98598 32.0638 9.14442 32 9.33331 32H10.3333C10.8 32 11.1944 32.1611 11.5166 32.4833C11.8389 32.8056 12 33.2 12 33.6667C12 34.1333 11.8389 34.5278 11.5166 34.85C11.1944 35.1722 10.8 35.3333 10.3333 35.3333H8.66665C8.11109 35.3333 7.63887 35.5222 7.24998 35.9C6.86109 36.2778 6.66665 36.7389 6.66665 37.2833C6.66665 37.7278 6.79442 38.1304 7.04998 38.4913C7.30553 38.8527 7.64442 39.1 8.06665 39.2333C8.24442 38.2889 8.69709 37.514 9.42465 36.9087C10.1526 36.3029 11 36 11.9666 36C12.1889 36 12.4029 36.0138 12.6086 36.0413C12.814 36.0693 13.0222 36.1167 13.2333 36.1833C12.6666 36.4167 12.2084 36.7833 11.8586 37.2833C11.5084 37.7833 11.3333 38.3389 11.3333 38.95C11.3333 39.3611 11.4 39.7611 11.5333 40.15C11.6666 40.5389 11.8944 40.8611 12.2166 41.1167L12.6666 40.6667C12.4333 40.4556 12.264 40.2056 12.1586 39.9167C12.0529 39.6278 12 39.3222 12 39C12 38.3444 12.2278 37.7916 12.6833 37.3413C13.1389 36.8916 13.6944 36.6667 14.35 36.6667C14.9944 36.6667 15.5418 36.8916 15.992 37.3413C16.4418 37.7916 16.6666 38.3333 16.6666 38.9667C16.6666 39.2333 16.6195 39.4916 16.5253 39.7413C16.4306 39.9916 16.2889 40.2111 16.1 40.4L18.2 42.2333C18.3333 42.3556 18.4418 42.4916 18.5253 42.6413C18.6084 42.7916 18.65 42.9556 18.65 43.1333C18.65 43.3889 18.5418 43.5971 18.3253 43.758C18.1084 43.9193 17.8555 44 17.5666 44H12ZM15.3333 42.6667C15.5222 42.6667 15.6804 42.6027 15.808 42.4747C15.936 42.3471 16 42.1889 16 42C16 41.8111 15.936 41.6529 15.808 41.5253C15.6804 41.3973 15.5222 41.3333 15.3333 41.3333C15.1444 41.3333 14.9862 41.3973 14.8586 41.5253C14.7306 41.6529 14.6666 41.8111 14.6666 42C14.6666 42.1889 14.7306 42.3471 14.8586 42.4747C14.9862 42.6027 15.1444 42.6667 15.3333 42.6667Z" fill="#683EFC"/>
<path d="M0.914062 35V14.375H6.36328C7.50391 14.375 8.40625 14.6289 9.07031 15.1367C9.74219 15.6445 10.2227 16.3672 10.5117 17.3047C10.8008 18.2422 10.9453 19.3594 10.9453 20.6562C10.9453 21.9062 10.8242 22.9961 10.582 23.9258C10.3398 24.8477 9.90625 25.5625 9.28125 26.0703C8.66406 26.5781 7.78516 26.832 6.64453 26.832H4.96875V35H0.914062ZM4.96875 23.1289H5.20312C5.96875 23.1289 6.4375 22.9141 6.60938 22.4844C6.78125 22.0547 6.86719 21.4219 6.86719 20.5859C6.86719 19.8047 6.78125 19.2031 6.60938 18.7812C6.44531 18.3516 6.05078 18.1367 5.42578 18.1367H4.96875V23.1289ZM12.2578 35V14.375H20.5078V18.3594H16.4531V22.3789H20.3438V26.2578H16.4531V30.9805H20.7773V35H12.2578ZM27.0469 35.1875C25.1641 35.1875 23.8047 34.7188 22.9688 33.7812C22.1406 32.8438 21.7266 31.3516 21.7266 29.3047V27.2891H25.8047V29.8672C25.8047 30.3438 25.875 30.7188 26.0156 30.9922C26.1641 31.2578 26.418 31.3906 26.7773 31.3906C27.1523 31.3906 27.4102 31.2812 27.5508 31.0625C27.6992 30.8438 27.7734 30.4844 27.7734 29.9844C27.7734 29.3516 27.7109 28.8242 27.5859 28.4023C27.4609 27.9727 27.2422 27.5664 26.9297 27.1836C26.625 26.793 26.1992 26.3398 25.6523 25.8242L23.8008 24.0664C22.418 22.7617 21.7266 21.2695 21.7266 19.5898C21.7266 17.832 22.1328 16.4922 22.9453 15.5703C23.7656 14.6484 24.9492 14.1875 26.4961 14.1875C28.3867 14.1875 29.7266 14.6914 30.5156 15.6992C31.3125 16.707 31.7109 18.2383 31.7109 20.293H27.5156V18.875C27.5156 18.5938 27.4336 18.375 27.2695 18.2188C27.1133 18.0625 26.8984 17.9844 26.625 17.9844C26.2969 17.9844 26.0547 18.0781 25.8984 18.2656C25.75 18.4453 25.6758 18.6797 25.6758 18.9688C25.6758 19.2578 25.7539 19.5703 25.9102 19.9062C26.0664 20.2422 26.375 20.6289 26.8359 21.0664L29.2148 23.3516C29.6914 23.8047 30.1289 24.2852 30.5273 24.793C30.9258 25.293 31.2461 25.8789 31.4883 26.5508C31.7305 27.2148 31.8516 28.0273 31.8516 28.9883C31.8516 30.9258 31.4922 32.4453 30.7734 33.5469C30.0625 34.6406 28.8203 35.1875 27.0469 35.1875ZM35.0039 35V18.3359H32.5547V14.375H41.5781V18.3359H39.1289V35H35.0039ZM47.4727 35.1875C44.0039 35.1875 42.2695 33.4297 42.2695 29.9141V28.5195H46.4883V30.582C46.4883 30.9805 46.5664 31.293 46.7227 31.5195C46.8789 31.7461 47.1289 31.8594 47.4727 31.8594C48.082 31.8594 48.3867 31.4023 48.3867 30.4883C48.3867 29.7227 48.2266 29.1523 47.9062 28.7773C47.5859 28.3945 47.1953 28.0273 46.7344 27.6758L44.4961 25.9531C43.793 25.4062 43.2578 24.8281 42.8906 24.2188C42.5234 23.6094 42.3398 22.7617 42.3398 21.6758C42.3398 20.668 42.5781 19.8359 43.0547 19.1797C43.5391 18.5234 44.1758 18.0352 44.9648 17.7148C45.7617 17.3945 46.6211 17.2344 47.543 17.2344C50.9492 17.2344 52.6523 18.9336 52.6523 22.332V22.6602H48.3164V21.9922C48.3164 21.6406 48.2539 21.3008 48.1289 20.9727C48.0117 20.6445 47.7773 20.4805 47.4258 20.4805C46.832 20.4805 46.5352 20.793 46.5352 21.418C46.5352 22.0508 46.7852 22.5469 47.2852 22.9062L49.8867 24.8047C50.6992 25.3906 51.3789 26.0859 51.9258 26.8906C52.4805 27.6953 52.7578 28.7656 52.7578 30.1016C52.7578 31.7578 52.2852 33.0195 51.3398 33.8867C50.4023 34.7539 49.1133 35.1875 47.4727 35.1875ZM59.1562 35.1875C55.6562 35.1875 53.9062 33.3711 53.9062 29.7383V22.6836C53.9062 21.0273 54.3711 19.707 55.3008 18.7227C56.2305 17.7305 57.5156 17.2344 59.1562 17.2344C60.8047 17.2344 62.0938 17.7305 63.0234 18.7227C63.9531 19.707 64.418 21.0273 64.418 22.6836V29.7383C64.418 33.3711 62.6641 35.1875 59.1562 35.1875ZM59.1562 31.9531C59.5078 31.9531 59.7578 31.8281 59.9062 31.5781C60.0625 31.3203 60.1406 30.9961 60.1406 30.6055V22.0156C60.1406 20.9922 59.8125 20.4805 59.1562 20.4805C58.5 20.4805 58.1719 20.9922 58.1719 22.0156V30.6055C58.1719 30.9961 58.2461 31.3203 58.3945 31.5781C58.5508 31.8281 58.8047 31.9531 59.1562 31.9531ZM65.9766 35V14.375H70.2422V35H65.9766ZM75.3164 35.1875C74.3789 35.1875 73.6602 34.9922 73.1602 34.6016C72.668 34.2109 72.332 33.668 72.1523 32.9727C71.9727 32.2695 71.8828 31.4492 71.8828 30.5117V17.4219H76.1016V30.0195C76.1016 30.7227 76.1562 31.2148 76.2656 31.4961C76.375 31.7695 76.6328 31.9062 77.0391 31.9062C77.4766 31.9062 77.75 31.7109 77.8594 31.3203C77.9766 30.9297 78.0352 30.4258 78.0352 29.8086V17.4219H82.2188V35H78.0234V33.125C77.7578 33.7969 77.4375 34.3086 77.0625 34.6602C76.6953 35.0117 76.1133 35.1875 75.3164 35.1875ZM87.5156 35.1875C86.3828 35.1875 85.6172 34.9492 85.2188 34.4727C84.8281 33.9883 84.6328 33.25 84.6328 32.2578V21.3008H83.4492V18.1016H84.6328V14.375H88.7109V18.1016H89.8945V21.3008H88.7109V31.2734C88.7109 31.5625 88.7578 31.7656 88.8516 31.8828C88.9453 32 89.125 32.0586 89.3906 32.0586C89.5781 32.0586 89.7461 32.043 89.8945 32.0117V34.8711C89.8008 34.9023 89.5078 34.9609 89.0156 35.0469C88.5234 35.1406 88.0234 35.1875 87.5156 35.1875ZM91.2188 16.3438V12.8516H95.4141V16.3438H91.2188ZM91.2188 35V17.4219H95.4141V35H91.2188ZM102.188 35.1875C98.6875 35.1875 96.9375 33.3711 96.9375 29.7383V22.6836C96.9375 21.0273 97.4023 19.707 98.332 18.7227C99.2617 17.7305 100.547 17.2344 102.188 17.2344C103.836 17.2344 105.125 17.7305 106.055 18.7227C106.984 19.707 107.449 21.0273 107.449 22.6836V29.7383C107.449 33.3711 105.695 35.1875 102.188 35.1875ZM102.188 31.9531C102.539 31.9531 102.789 31.8281 102.938 31.5781C103.094 31.3203 103.172 30.9961 103.172 30.6055V22.0156C103.172 20.9922 102.844 20.4805 102.188 20.4805C101.531 20.4805 101.203 20.9922 101.203 22.0156V30.6055C101.203 30.9961 101.277 31.3203 101.426 31.5781C101.582 31.8281 101.836 31.9531 102.188 31.9531ZM109.008 35V17.4219H113.203V19.6602C113.359 18.9883 113.648 18.418 114.07 17.9492C114.5 17.4727 115.094 17.2344 115.852 17.2344C117.07 17.2344 117.953 17.6094 118.5 18.3594C119.055 19.1094 119.332 20.1367 119.332 21.4414V35H115.195V21.875C115.195 21.5312 115.125 21.2148 114.984 20.9258C114.844 20.6289 114.602 20.4805 114.258 20.4805C113.938 20.4805 113.699 20.5938 113.543 20.8203C113.395 21.0391 113.301 21.3164 113.262 21.6523C113.223 21.9805 113.203 22.3086 113.203 22.6367V35H109.008Z" fill="#683EFC"/>
<path d="M30 14C29 14 28.1222 13.6804 27.3666 13.0413C26.6111 12.4027 26.1722 11.5889 26.05 10.6C25.25 10.4444 24.5973 10.0556 24.092 9.43333C23.5862 8.81111 23.3333 8.1 23.3333 7.3C23.3333 6.37778 23.6584 5.59733 24.3086 4.95867C24.9584 4.31956 25.7444 4 26.6666 4H28.3333C28.4222 4 28.5 3.96667 28.5666 3.9C28.6333 3.83333 28.6666 3.75556 28.6666 3.66667C28.6666 3.57778 28.6333 3.5 28.5666 3.43333C28.5 3.36667 28.4222 3.33333 28.3333 3.33333H27.3333C27.1444 3.33333 26.986 3.26933 26.858 3.14133C26.7304 3.01378 26.6666 2.85556 26.6666 2.66667C26.6666 2.47778 26.7304 2.31933 26.858 2.19133C26.986 2.06378 27.1444 2 27.3333 2H28.3333C28.8 2 29.1944 2.16111 29.5166 2.48333C29.8389 2.80556 30 3.2 30 3.66667C30 4.13333 29.8389 4.52778 29.5166 4.85C29.1944 5.17222 28.8 5.33333 28.3333 5.33333H26.6666C26.1111 5.33333 25.6389 5.52222 25.25 5.9C24.8611 6.27778 24.6666 6.73889 24.6666 7.28333C24.6666 7.72778 24.7944 8.13045 25.05 8.49133C25.3055 8.85267 25.6444 9.1 26.0666 9.23333C26.2444 8.28889 26.6971 7.514 27.4246 6.90867C28.1526 6.30289 29 6 29.9666 6C30.1889 6 30.4029 6.01378 30.6086 6.04133C30.814 6.06933 31.0222 6.11667 31.2333 6.18333C30.6666 6.41667 30.2084 6.78333 29.8586 7.28333C29.5084 7.78333 29.3333 8.33889 29.3333 8.95C29.3333 9.36111 29.4 9.76111 29.5333 10.15C29.6666 10.5389 29.8944 10.8611 30.2166 11.1167L30.6666 10.6667C30.4333 10.4556 30.264 10.2056 30.1586 9.91667C30.0529 9.62778 30 9.32222 30 9C30 8.34444 30.2278 7.79156 30.6833 7.34133C31.1389 6.89156 31.6944 6.66667 32.35 6.66667C32.9944 6.66667 33.5418 6.89156 33.992 7.34133C34.4418 7.79156 34.6666 8.33333 34.6666 8.96667C34.6666 9.23333 34.6195 9.49156 34.5253 9.74133C34.4306 9.99156 34.2889 10.2111 34.1 10.4L36.2 12.2333C36.3333 12.3556 36.4418 12.4916 36.5253 12.6413C36.6084 12.7916 36.65 12.9556 36.65 13.1333C36.65 13.3889 36.5418 13.5971 36.3253 13.758C36.1084 13.9193 35.8555 14 35.5666 14H30ZM33.3333 12.6667C33.5222 12.6667 33.6804 12.6027 33.808 12.4747C33.936 12.3471 34 12.1889 34 12C34 11.8111 33.936 11.6529 33.808 11.5253C33.6804 11.3973 33.5222 11.3333 33.3333 11.3333C33.1444 11.3333 32.9862 11.3973 32.8586 11.5253C32.7306 11.6529 32.6666 11.8111 32.6666 12C32.6666 12.1889 32.7306 12.3471 32.8586 12.4747C32.9862 12.6027 33.1444 12.6667 33.3333 12.6667Z" fill="#683EFC"/>
</svg>
