<svg width="100%" height="auto" viewBox="0 0 1439 604" fill="none" xmlns="http://www.w3.org/2000/svg">
<g clip-path="url(#clip0_328_723)">
<rect width="604" height="1439" transform="translate(0 604) rotate(-90)" fill="#431B56"/>
<ellipse cx="343.225" cy="207.456" rx="343.225" ry="207.456" transform="matrix(0.978711 0.205246 -0.729817 0.683643 522.484 0)" fill="#683EFC" fill-opacity="0.97"/>
<ellipse cx="268.923" cy="490.552" rx="218.378" ry="73.5254" fill="#32CD9F"/>
<ellipse cx="1066.94" cy="490.696" rx="299.055" ry="113.304" fill="#683EFC"/>
<g style="mix-blend-mode:multiply">
<ellipse cx="266.979" cy="425.069" rx="266.979" ry="89.6091" fill="#32CD9F"/>
</g>
<ellipse cx="399.821" cy="371.361" rx="215.786" ry="72.3766" fill="#ECEEFF"/>
<g style="mix-blend-mode:multiply">
<ellipse cx="413.429" cy="405.251" rx="218.378" ry="73.5254" fill="#FF0CF5"/>
</g>
<g filter="url(#filter0_b_328_723)">
<rect x="-34" width="1473" height="604" fill="url(#paint0_linear_328_723)"/>
</g>
<g style="mix-blend-mode:overlay">
<path d="M10.92 386.614C-1.91161 468.558 18.5345 609.535 202.972 517.886C433.519 403.323 1089.73 175.028 943.685 615.04" stroke="white"/>
<path d="M745.737 -850.238C901.189 -206.753 -234.325 -578.98 58.4213 -482.475C849.059 -221.839 530.864 369.995 872.801 668.897" stroke="white"/>
<path d="M17.9811 351.47C9.5474 451.802 -6.30243 574.138 181.271 488.75C429.161 387.298 1052.46 183.653 922.397 619.986" stroke="white"/>
<path d="M25.5213 315.753C21.5548 434.457 -30.661 538.289 160.072 459.15C425.355 370.742 1015.84 191.871 901.743 624.465" stroke="white"/>
<path d="M33.4673 279.531C34.0371 416.589 -54.6141 502.054 139.303 429.153C422.029 353.722 979.796 199.748 881.649 628.546" stroke="white"/>
<path d="M41.7598 242.858C46.9351 398.254 -78.2209 465.49 118.905 398.814C419.124 336.296 944.266 207.34 862.057 632.283" stroke="white"/>
<path d="M50.3495 205.78C60.1991 379.496 -101.53 428.642 98.8276 368.179C416.589 318.506 909.204 214.691 842.917 635.721" stroke="white"/>
<path d="M59.1947 168.336C73.7878 360.356 -124.584 391.549 79.0307 337.286C414.384 300.392 874.567 221.841 824.189 638.899" stroke="white"/>
<path d="M68.2602 130.558C87.6657 340.865 -147.416 354.243 59.479 306.167C412.473 281.987 840.322 228.82 805.836 641.848" stroke="white"/>
<path d="M77.5158 92.4749C101.803 321.051 -170.057 316.752 40.1427 274.852C410.827 263.318 806.439 235.658 787.83 644.597" stroke="white"/>
<path d="M86.9354 54.1105C116.172 300.938 -192.532 279.101 20.996 243.364C409.419 244.41 772.892 242.376 770.144 647.169" stroke="white"/>
<path d="M96.4954 15.4861C130.751 280.547 -214.865 241.311 2.0155 211.724C408.226 225.282 739.657 248.997 752.756 649.584" stroke="white"/>
<path d="M106.178 -23.3805C145.521 259.895 -237.073 203.4 -16.8162 179.949C407.23 205.954 706.718 255.537 735.647 651.861" stroke="white"/>
<path d="M117.95 -60.5805C162.45 240.892 -257.189 167.276 -33.5322 149.95C408.398 188.333 676.042 263.905 720.784 655.907" stroke="white"/>
<path d="M139.4 -88.8991C189.124 230.752 -267.625 140.155 -40.5436 128.94C419.318 179.634 655.218 281.315 715.758 668.937" stroke="white"/>
<path d="M161.087 -117.346C216.105 220.466 -277.819 113.026 -47.2903 107.909C430.552 170.848 634.805 298.757 711.126 681.942" stroke="white"/>
<path d="M182.971 -145.937C243.352 210.015 -287.813 85.8729 -53.8123 86.8417C442.057 161.956 614.765 316.214 706.85 694.902" stroke="white"/>
<path d="M205.023 -174.684C270.834 199.39 -297.636 58.6862 -60.14 65.7272C453.805 152.95 595.066 333.675 702.9 707.81" stroke="white"/>
<path d="M227.216 -203.59C298.526 188.587 -307.312 31.4606 -66.2973 44.5606C465.77 143.825 575.686 351.135 699.25 720.658" stroke="white"/>
<path d="M249.533 -232.659C326.41 177.601 -316.861 4.19305 -72.3033 23.3389C477.933 134.576 556.604 368.591 695.883 733.444" stroke="white"/>
<path d="M271.955 -261.891C354.469 166.433 -326.299 -23.1171 -78.175 2.06122C490.278 125.203 537.805 386.04 692.781 746.167" stroke="white"/>
<path d="M300.946 -298.285C389.163 148.082 -329.163 -57.4681 -77.4494 -26.2707C509.267 108.707 525.751 396.486 696.406 751.827" stroke="white"/>
<path d="M341.796 -347.675C435.785 116.716 -320.162 -104.694 -64.8353 -67.4912C540.19 79.2545 525.735 394.092 712.051 744.59" stroke="white"/>
<path d="M382.571 -397.216C482.401 85.1783 -311.23 -151.951 -52.2662 -108.756C571.115 49.6892 525.821 391.703 727.782 737.3" stroke="white"/>
<path d="M423.268 -446.912C529.007 53.466 -302.37 -199.241 -39.7457 -150.068C602.038 20.0084 526.007 389.315 743.595 729.954" stroke="white"/>
<path d="M463.884 -496.764C575.599 21.5765 -293.584 -246.567 -27.2765 -191.429C632.955 -9.79049 526.291 386.926 759.487 722.549" stroke="white"/>
<path d="M504.415 -546.774C622.175 -10.4922 -284.876 -293.931 -14.8608 -232.841C663.865 -39.7098 526.67 384.533 775.456 715.083" stroke="white"/>
<path d="M544.86 -596.945C668.733 -42.7417 -276.246 -341.333 -2.50082 -274.307C694.764 -69.7511 527.142 382.135 791.5 707.553" stroke="white"/>
<path d="M585.217 -647.276C715.27 -75.1732 -267.697 -388.776 9.80193 -315.826C725.652 -99.9154 527.706 379.73 807.618 699.959" stroke="white"/>
<path d="M625.483 -697.769C761.784 -107.788 -259.231 -436.261 22.0449 -357.401C756.524 -130.205 528.36 377.315 823.806 692.298" stroke="white"/>
<path d="M665.658 -748.425C808.275 -140.588 -250.847 -483.787 34.229 -399.032C787.383 -160.619 529.104 374.89 840.066 684.57" stroke="white"/>
<path d="M705.741 -799.245C854.741 -173.573 -242.548 -531.357 46.3519 -440.72C818.226 -191.161 529.936 372.454 856.395 676.774" stroke="white"/>
</g>
<path d="M568.634 208.2C558.334 208.2 549.534 205.85 542.234 201.15C535.034 196.35 529.584 189.9 525.884 181.8C522.284 173.6 520.484 164.5 520.484 154.5C520.484 144.4 522.334 135.25 526.034 127.05C529.734 118.75 535.184 112.15 542.384 107.25C549.684 102.35 558.434 99.9 568.634 99.9C578.834 99.9 587.534 102.35 594.734 107.25C601.934 112.05 607.384 118.6 611.084 126.9C614.784 135.1 616.634 144.3 616.634 154.5C616.634 164.6 614.784 173.75 611.084 181.95C607.384 190.05 601.884 196.45 594.584 201.15C587.384 205.85 578.734 208.2 568.634 208.2ZM568.634 189.6C576.834 189.6 583.184 186.3 587.684 179.7C592.184 173 594.434 164.5 594.434 154.2C594.434 147.6 593.434 141.6 591.434 136.2C589.534 130.8 586.634 126.5 582.734 123.3C578.834 120.1 574.134 118.5 568.634 118.5C563.134 118.5 558.384 120.15 554.384 123.45C550.484 126.65 547.534 130.95 545.534 136.35C543.534 141.75 542.534 147.75 542.534 154.35C542.534 164.45 544.784 172.85 549.284 179.55C553.884 186.25 560.334 189.6 568.634 189.6ZM661.122 208.2C652.822 208.2 645.822 206.35 640.122 202.65C634.522 198.85 630.322 193.85 627.522 187.65C624.722 181.45 623.322 174.65 623.322 167.25C623.322 159.85 624.672 153.05 627.372 146.85C630.172 140.55 634.422 135.5 640.122 131.7C645.822 127.9 652.822 126 661.122 126C669.422 126 676.422 127.9 682.122 131.7C687.822 135.4 692.072 140.35 694.872 146.55C697.672 152.75 699.072 159.55 699.072 166.95C699.072 174.35 697.672 181.2 694.872 187.5C692.072 193.7 687.822 198.7 682.122 202.5C676.422 206.3 669.422 208.2 661.122 208.2ZM661.122 191.4C666.922 191.4 671.272 189.1 674.172 184.5C677.172 179.8 678.672 173.95 678.672 166.95C678.672 159.95 677.172 154.2 674.172 149.7C671.272 145.1 666.922 142.8 661.122 142.8C655.322 142.8 650.972 145.1 648.072 149.7C645.172 154.2 643.722 159.95 643.722 166.95C643.722 173.95 645.172 179.8 648.072 184.5C651.072 189.1 655.422 191.4 661.122 191.4ZM753.959 208.2C747.259 208.2 742.009 206.65 738.209 203.55C734.409 200.45 731.609 197.05 729.809 193.35H728.609V238.2H707.759V127.8H728.609V140.1H729.809C731.409 136.7 734.109 133.5 737.909 130.5C741.709 127.4 747.009 125.85 753.809 125.85C763.909 125.85 771.659 129.6 777.059 137.1C782.559 144.6 785.309 154.65 785.309 167.25C785.309 179.55 782.559 189.45 777.059 196.95C771.659 204.45 763.959 208.2 753.959 208.2ZM746.459 191.7C752.459 191.7 756.909 189.3 759.809 184.5C762.809 179.7 764.309 173.9 764.309 167.1C764.309 160.5 762.809 154.85 759.809 150.15C756.909 145.35 752.459 142.95 746.459 142.95C740.559 142.95 736.109 145.35 733.109 150.15C730.109 154.95 728.609 160.65 728.609 167.25C728.609 173.95 730.109 179.7 733.109 184.5C736.109 189.3 740.559 191.7 746.459 191.7ZM824.177 208.2C817.477 208.2 811.677 206.95 806.777 204.45C801.977 201.95 798.327 198.7 795.827 194.7C793.327 190.6 792.077 186.3 792.077 181.8V180.9H812.327V181.8C812.327 184.5 813.377 186.9 815.477 189C817.577 191.1 820.627 192.15 824.627 192.15C827.927 192.15 830.577 191.4 832.577 189.9C834.677 188.3 835.727 186.15 835.727 183.45C835.727 181.05 834.827 179.15 833.027 177.75C831.227 176.35 828.977 175.45 826.277 175.05L817.277 173.25C811.377 172.15 806.027 169.8 801.227 166.2C796.427 162.6 794.027 157.15 794.027 149.85C794.027 142.35 796.777 136.5 802.277 132.3C807.777 128 814.827 125.85 823.427 125.85C829.727 125.85 835.177 127 839.777 129.3C844.377 131.6 847.877 134.65 850.277 138.45C852.677 142.15 853.877 146.15 853.877 150.45V151.05H833.627V150.6C833.627 148.2 832.727 146 830.927 144C829.127 141.9 826.377 140.85 822.677 140.85C819.577 140.85 817.077 141.65 815.177 143.25C813.277 144.85 812.327 146.95 812.327 149.55C812.327 151.95 813.277 153.85 815.177 155.25C817.177 156.65 819.627 157.6 822.527 158.1L832.427 160.05C838.827 161.45 844.227 164 848.627 167.7C853.027 171.3 855.227 176.45 855.227 183.15C855.227 188.15 853.877 192.55 851.177 196.35C848.477 200.15 844.727 203.1 839.927 205.2C835.227 207.2 829.977 208.2 824.177 208.2ZM864.548 106.2V97.2H885.848V106.2L882.548 172.35H867.548L864.548 106.2ZM875.198 208.5C871.998 208.5 869.348 207.4 867.248 205.2C865.148 203 864.098 200.35 864.098 197.25C864.098 194.15 865.148 191.5 867.248 189.3C869.348 187.1 871.998 186 875.198 186C878.398 186 881.048 187.1 883.148 189.3C885.348 191.5 886.448 194.15 886.448 197.25C886.448 200.35 885.348 203 883.148 205.2C881.048 207.4 878.398 208.5 875.198 208.5ZM411.794 317.77C406.294 317.77 401.527 316.707 397.494 314.58C393.534 312.38 390.417 309.52 388.144 306C385.871 302.48 384.477 298.667 383.964 294.56H399.364C400.097 297.787 401.564 300.207 403.764 301.82C406.037 303.433 408.641 304.24 411.574 304.24C415.534 304.24 418.614 302.957 420.814 300.39C423.014 297.75 424.114 294.377 424.114 290.27C424.114 286.09 422.977 282.717 420.704 280.15C418.504 277.583 415.387 276.3 411.354 276.3C405.927 276.3 402.114 278.793 399.914 283.78L384.844 283.56L386.934 240H434.674V253.86H399.364L398.374 272.78H399.034C400.061 271.167 401.857 269.553 404.424 267.94C406.991 266.327 410.621 265.52 415.314 265.52C422.721 265.52 428.551 267.757 432.804 272.23C437.131 276.703 439.294 282.717 439.294 290.27C439.294 295.183 438.231 299.73 436.104 303.91C434.051 308.09 430.971 311.463 426.864 314.03C422.757 316.523 417.734 317.77 411.794 317.77ZM473.686 318.54C463.713 318.54 456.269 315.277 451.356 308.75C446.516 302.223 444.096 293.607 444.096 282.9V273.88C444.096 263.173 446.516 254.593 451.356 248.14C456.269 241.687 463.713 238.46 473.686 238.46C483.733 238.46 491.176 241.723 496.016 248.25C500.929 254.703 503.386 263.247 503.386 273.88V282.9C503.386 293.607 500.929 302.223 496.016 308.75C491.103 315.277 483.659 318.54 473.686 318.54ZM473.686 305.34C478.086 305.34 481.276 303.507 483.256 299.84C485.309 296.1 486.336 290.637 486.336 283.45V273.22C486.336 266.107 485.309 260.753 483.256 257.16C481.276 253.493 478.086 251.66 473.686 251.66C469.359 251.66 466.169 253.493 464.116 257.16C462.136 260.753 461.146 266.107 461.146 273.22V283.45C461.146 290.637 462.136 296.1 464.116 299.84C466.169 303.507 469.359 305.34 473.686 305.34ZM537.821 318.54C527.848 318.54 520.405 315.277 515.491 308.75C510.651 302.223 508.231 293.607 508.231 282.9V273.88C508.231 263.173 510.651 254.593 515.491 248.14C520.405 241.687 527.848 238.46 537.821 238.46C547.868 238.46 555.311 241.723 560.151 248.25C565.065 254.703 567.521 263.247 567.521 273.88V282.9C567.521 293.607 565.065 302.223 560.151 308.75C555.238 315.277 547.795 318.54 537.821 318.54ZM537.821 305.34C542.221 305.34 545.411 303.507 547.391 299.84C549.445 296.1 550.471 290.637 550.471 283.45V273.22C550.471 266.107 549.445 260.753 547.391 257.16C545.411 253.493 542.221 251.66 537.821 251.66C533.495 251.66 530.305 253.493 528.251 257.16C526.271 260.753 525.281 266.107 525.281 273.22V283.45C525.281 290.637 526.271 296.1 528.251 299.84C530.305 303.507 533.495 305.34 537.821 305.34ZM580.512 276.63H620.222V288.73H580.512V276.63ZM656.548 240H671.948V317H656.548V240ZM681.671 258.92H697.071V267.83H697.841C699.161 264.97 701.288 262.55 704.221 260.57C707.155 258.517 710.711 257.49 714.891 257.49C722.445 257.49 727.761 259.91 730.841 264.75C733.995 269.59 735.571 275.09 735.571 281.25V317H720.391V283.78C720.391 279.527 719.365 276.19 717.311 273.77C715.331 271.35 712.508 270.14 708.841 270.14C704.955 270.14 702.021 271.423 700.041 273.99C698.061 276.483 697.071 279.747 697.071 283.78V317H681.671V258.92ZM764.041 270.8V296.65C764.041 299.217 764.151 301.123 764.371 302.37C764.665 303.617 765.398 304.607 766.571 305.34C767.745 306.073 769.651 306.44 772.291 306.44C773.831 306.44 775.408 306.293 777.021 306V316.56C776.215 316.707 774.748 316.89 772.621 317.11C770.568 317.33 768.551 317.44 766.571 317.44C761.218 317.44 757.221 316.67 754.581 315.13C752.015 313.517 750.401 311.537 749.741 309.19C749.081 306.77 748.751 303.69 748.751 299.95V270.8H739.071V258.92H748.861V240H764.041V258.92H777.021V270.8H764.041ZM810.12 317.88C804.034 317.88 798.9 316.487 794.72 313.7C790.54 310.84 787.424 307.137 785.37 302.59C783.39 297.97 782.4 293.02 782.4 287.74C782.4 282.46 783.39 277.547 785.37 273C787.424 268.38 790.54 264.64 794.72 261.78C798.9 258.92 804.07 257.49 810.23 257.49C818.37 257.49 824.824 260.093 829.59 265.3C834.43 270.507 836.85 278.023 836.85 287.85V292.03H797.03V292.91C797.03 296.43 798.24 299.473 800.66 302.04C803.08 304.533 806.124 305.78 809.79 305.78C812.65 305.78 815.07 305.12 817.05 303.8C819.03 302.48 820.46 300.683 821.34 298.41H836.3C834.76 304.13 831.754 308.823 827.28 312.49C822.807 316.083 817.087 317.88 810.12 317.88ZM822.22 282.13C822.074 277.51 820.9 274.1 818.7 271.9C816.5 269.7 813.604 268.6 810.01 268.6C806.197 268.6 803.19 269.81 800.99 272.23C798.79 274.65 797.617 277.95 797.47 282.13H822.22ZM843.579 258.92H858.649V268.16H859.419C860.372 265.593 862.132 263.43 864.699 261.67C867.266 259.837 870.566 258.92 874.599 258.92C876.139 258.92 877.459 259.067 878.559 259.36L877.899 273.33C876.066 272.817 874.122 272.56 872.069 272.56C867.522 272.56 864.149 273.77 861.949 276.19C859.749 278.537 858.649 282.46 858.649 287.96V317H843.579V258.92ZM883.104 258.92H898.504V267.83H899.274C900.594 264.97 902.721 262.55 905.654 260.57C908.588 258.517 912.144 257.49 916.324 257.49C923.878 257.49 929.194 259.91 932.274 264.75C935.428 269.59 937.004 275.09 937.004 281.25V317H921.824V283.78C921.824 279.527 920.798 276.19 918.744 273.77C916.764 271.35 913.941 270.14 910.274 270.14C906.388 270.14 903.454 271.423 901.474 273.99C899.494 276.483 898.504 279.747 898.504 283.78V317H883.104V258.92ZM965.554 317.88C958.367 317.88 952.757 315.13 948.724 309.63C944.69 304.13 942.674 296.87 942.674 287.85C942.674 278.683 944.69 271.35 948.724 265.85C952.83 260.277 958.55 257.49 965.884 257.49C970.797 257.49 974.647 258.627 977.434 260.9C980.22 263.1 982.2 265.447 983.374 267.94H984.254V258.92H999.544V317H984.254V306.99H983.374C982.054 309.703 980 312.197 977.214 314.47C974.427 316.743 970.54 317.88 965.554 317.88ZM971.164 305.56C975.49 305.56 978.754 303.8 980.954 300.28C983.154 296.76 984.254 292.543 984.254 287.63C984.254 282.717 983.154 278.537 980.954 275.09C978.827 271.643 975.564 269.92 971.164 269.92C966.764 269.92 963.5 271.643 961.374 275.09C959.247 278.537 958.184 282.717 958.184 287.63C958.184 292.617 959.247 296.87 961.374 300.39C963.5 303.837 966.764 305.56 971.164 305.56ZM1027.06 317.44C1021.64 317.44 1017.6 316.633 1014.96 315.02C1012.4 313.333 1010.78 311.28 1010.12 308.86C1009.54 306.367 1009.24 303.213 1009.24 299.4V234.5H1024.42V296.32C1024.42 298.96 1024.53 300.94 1024.75 302.26C1025.05 303.507 1025.78 304.533 1026.95 305.34C1028.2 306.073 1030.14 306.44 1032.78 306.44C1033.66 306.44 1034.69 306.367 1035.86 306.22V316.78C1032.12 317.22 1029.19 317.44 1027.06 317.44ZM466.438 427.99C460.278 427.99 454.961 426.78 450.488 424.36C446.088 421.867 442.751 418.677 440.478 414.79C438.204 410.903 437.068 406.797 437.068 402.47V401.81H453.788V402.47C453.788 404.303 454.228 406.173 455.108 408.08C456.061 409.913 457.491 411.453 459.398 412.7C461.378 413.947 463.798 414.57 466.658 414.57C470.251 414.57 473.148 413.653 475.348 411.82C477.621 409.987 478.758 407.53 478.758 404.45C478.758 401.81 477.804 399.72 475.898 398.18C474.064 396.567 471.791 395.503 469.078 394.99L459.728 393.01C454.888 392.057 450.231 390.003 445.758 386.85C441.284 383.623 439.048 378.38 439.048 371.12C439.048 366.427 440.184 362.393 442.458 359.02C444.731 355.573 447.884 352.97 451.918 351.21C455.951 349.377 460.534 348.46 465.668 348.46C471.534 348.46 476.558 349.597 480.738 351.87C484.991 354.143 488.181 357.077 490.308 360.67C492.508 364.263 493.608 368.077 493.608 372.11V372.55H476.888V372.22C476.888 369.58 475.934 367.123 474.028 364.85C472.194 362.503 469.224 361.33 465.118 361.33C461.744 361.33 459.104 362.247 457.198 364.08C455.291 365.84 454.338 368.113 454.338 370.9C454.338 373.54 455.291 375.63 457.198 377.17C459.178 378.71 461.598 379.773 464.458 380.36L473.698 382.34C479.344 383.587 484.258 385.897 488.438 389.27C492.618 392.643 494.708 397.593 494.708 404.12C494.708 408.813 493.498 412.993 491.078 416.66C488.658 420.253 485.284 423.04 480.958 425.02C476.704 427 471.864 427.99 466.438 427.99ZM526.554 427.88C520.468 427.88 515.334 426.487 511.154 423.7C506.974 420.84 503.858 417.137 501.804 412.59C499.824 407.97 498.834 403.02 498.834 397.74C498.834 392.46 499.824 387.547 501.804 383C503.858 378.38 506.974 374.64 511.154 371.78C515.334 368.92 520.504 367.49 526.664 367.49C534.804 367.49 541.258 370.093 546.024 375.3C550.864 380.507 553.284 388.023 553.284 397.85V402.03H513.464V402.91C513.464 406.43 514.674 409.473 517.094 412.04C519.514 414.533 522.558 415.78 526.224 415.78C529.084 415.78 531.504 415.12 533.484 413.8C535.464 412.48 536.894 410.683 537.774 408.41H552.734C551.194 414.13 548.188 418.823 543.714 422.49C539.241 426.083 533.521 427.88 526.554 427.88ZM538.654 392.13C538.508 387.51 537.334 384.1 535.134 381.9C532.934 379.7 530.038 378.6 526.444 378.6C522.631 378.6 519.624 379.81 517.424 382.23C515.224 384.65 514.051 387.95 513.904 392.13H538.654ZM560.013 368.92H575.083V378.16H575.853C576.807 375.593 578.567 373.43 581.133 371.67C583.7 369.837 587 368.92 591.033 368.92C592.573 368.92 593.893 369.067 594.993 369.36L594.333 383.33C592.5 382.817 590.557 382.56 588.503 382.56C583.957 382.56 580.583 383.77 578.383 386.19C576.183 388.537 575.083 392.46 575.083 397.96V427H560.013V368.92ZM598.689 368.92H613.099L626.959 411.6H627.619L641.259 368.92H655.669L636.309 427H617.939L598.689 368.92ZM684.155 427.88C678.069 427.88 672.935 426.487 668.755 423.7C664.575 420.84 661.459 417.137 659.405 412.59C657.425 407.97 656.435 403.02 656.435 397.74C656.435 392.46 657.425 387.547 659.405 383C661.459 378.38 664.575 374.64 668.755 371.78C672.935 368.92 678.105 367.49 684.265 367.49C692.405 367.49 698.859 370.093 703.625 375.3C708.465 380.507 710.885 388.023 710.885 397.85V402.03H671.065V402.91C671.065 406.43 672.275 409.473 674.695 412.04C677.115 414.533 680.159 415.78 683.825 415.78C686.685 415.78 689.105 415.12 691.085 413.8C693.065 412.48 694.495 410.683 695.375 408.41H710.335C708.795 414.13 705.789 418.823 701.315 422.49C696.842 426.083 691.122 427.88 684.155 427.88ZM696.255 392.13C696.109 387.51 694.935 384.1 692.735 381.9C690.535 379.7 687.639 378.6 684.045 378.6C680.232 378.6 677.225 379.81 675.025 382.23C672.825 384.65 671.652 387.95 671.505 392.13H696.255ZM717.614 368.92H732.684V378.16H733.454C734.407 375.593 736.167 373.43 738.734 371.67C741.301 369.837 744.601 368.92 748.634 368.92C750.174 368.92 751.494 369.067 752.594 369.36L751.934 383.33C750.101 382.817 748.157 382.56 746.104 382.56C741.557 382.56 738.184 383.77 735.984 386.19C733.784 388.537 732.684 392.46 732.684 397.96V427H717.614V368.92ZM791.665 363.31V381.9H821.915V393.89H791.665V413.69H827.305V427H776.375V350H827.305V363.31H791.665ZM834.717 368.92H849.787V378.16H850.557C851.51 375.593 853.27 373.43 855.837 371.67C858.404 369.837 861.704 368.92 865.737 368.92C867.277 368.92 868.597 369.067 869.697 369.36L869.037 383.33C867.204 382.817 865.26 382.56 863.207 382.56C858.66 382.56 855.287 383.77 853.087 386.19C850.887 388.537 849.787 392.46 849.787 397.96V427H834.717V368.92ZM872.856 368.92H887.926V378.16H888.696C889.649 375.593 891.409 373.43 893.976 371.67C896.543 369.837 899.843 368.92 903.876 368.92C905.416 368.92 906.736 369.067 907.836 369.36L907.176 383.33C905.343 382.817 903.399 382.56 901.346 382.56C896.799 382.56 893.426 383.77 891.226 386.19C889.026 388.537 887.926 392.46 887.926 397.96V427H872.856V368.92ZM936.193 427.88C930.106 427.88 924.973 426.523 920.793 423.81C916.686 421.023 913.606 417.357 911.553 412.81C909.499 408.263 908.473 403.277 908.473 397.85C908.473 392.423 909.463 387.437 911.443 382.89C913.496 378.27 916.613 374.567 920.793 371.78C924.973 368.993 930.106 367.6 936.193 367.6C942.279 367.6 947.413 368.993 951.593 371.78C955.773 374.493 958.889 378.123 960.943 382.67C962.996 387.217 964.023 392.203 964.023 397.63C964.023 403.057 962.996 408.08 960.943 412.7C958.889 417.247 955.773 420.913 951.593 423.7C947.413 426.487 942.279 427.88 936.193 427.88ZM936.193 415.56C940.446 415.56 943.636 413.873 945.763 410.5C947.963 407.053 949.063 402.763 949.063 397.63C949.063 392.497 947.963 388.28 945.763 384.98C943.636 381.607 940.446 379.92 936.193 379.92C931.939 379.92 928.749 381.607 926.623 384.98C924.496 388.28 923.433 392.497 923.433 397.63C923.433 402.763 924.496 407.053 926.623 410.5C928.823 413.873 932.013 415.56 936.193 415.56ZM970.833 368.92H985.903V378.16H986.673C987.627 375.593 989.387 373.43 991.953 371.67C994.52 369.837 997.82 368.92 1001.85 368.92C1003.39 368.92 1004.71 369.067 1005.81 369.36L1005.15 383.33C1003.32 382.817 1001.38 382.56 999.323 382.56C994.777 382.56 991.403 383.77 989.203 386.19C987.003 388.537 985.903 392.46 985.903 397.96V427H970.833V368.92Z" fill="#683EFC"/>
<path d="M568.634 208.2C558.334 208.2 549.534 205.85 542.234 201.15C535.034 196.35 529.584 189.9 525.884 181.8C522.284 173.6 520.484 164.5 520.484 154.5C520.484 144.4 522.334 135.25 526.034 127.05C529.734 118.75 535.184 112.15 542.384 107.25C549.684 102.35 558.434 99.9 568.634 99.9C578.834 99.9 587.534 102.35 594.734 107.25C601.934 112.05 607.384 118.6 611.084 126.9C614.784 135.1 616.634 144.3 616.634 154.5C616.634 164.6 614.784 173.75 611.084 181.95C607.384 190.05 601.884 196.45 594.584 201.15C587.384 205.85 578.734 208.2 568.634 208.2ZM568.634 189.6C576.834 189.6 583.184 186.3 587.684 179.7C592.184 173 594.434 164.5 594.434 154.2C594.434 147.6 593.434 141.6 591.434 136.2C589.534 130.8 586.634 126.5 582.734 123.3C578.834 120.1 574.134 118.5 568.634 118.5C563.134 118.5 558.384 120.15 554.384 123.45C550.484 126.65 547.534 130.95 545.534 136.35C543.534 141.75 542.534 147.75 542.534 154.35C542.534 164.45 544.784 172.85 549.284 179.55C553.884 186.25 560.334 189.6 568.634 189.6ZM661.122 208.2C652.822 208.2 645.822 206.35 640.122 202.65C634.522 198.85 630.322 193.85 627.522 187.65C624.722 181.45 623.322 174.65 623.322 167.25C623.322 159.85 624.672 153.05 627.372 146.85C630.172 140.55 634.422 135.5 640.122 131.7C645.822 127.9 652.822 126 661.122 126C669.422 126 676.422 127.9 682.122 131.7C687.822 135.4 692.072 140.35 694.872 146.55C697.672 152.75 699.072 159.55 699.072 166.95C699.072 174.35 697.672 181.2 694.872 187.5C692.072 193.7 687.822 198.7 682.122 202.5C676.422 206.3 669.422 208.2 661.122 208.2ZM661.122 191.4C666.922 191.4 671.272 189.1 674.172 184.5C677.172 179.8 678.672 173.95 678.672 166.95C678.672 159.95 677.172 154.2 674.172 149.7C671.272 145.1 666.922 142.8 661.122 142.8C655.322 142.8 650.972 145.1 648.072 149.7C645.172 154.2 643.722 159.95 643.722 166.95C643.722 173.95 645.172 179.8 648.072 184.5C651.072 189.1 655.422 191.4 661.122 191.4ZM753.959 208.2C747.259 208.2 742.009 206.65 738.209 203.55C734.409 200.45 731.609 197.05 729.809 193.35H728.609V238.2H707.759V127.8H728.609V140.1H729.809C731.409 136.7 734.109 133.5 737.909 130.5C741.709 127.4 747.009 125.85 753.809 125.85C763.909 125.85 771.659 129.6 777.059 137.1C782.559 144.6 785.309 154.65 785.309 167.25C785.309 179.55 782.559 189.45 777.059 196.95C771.659 204.45 763.959 208.2 753.959 208.2ZM746.459 191.7C752.459 191.7 756.909 189.3 759.809 184.5C762.809 179.7 764.309 173.9 764.309 167.1C764.309 160.5 762.809 154.85 759.809 150.15C756.909 145.35 752.459 142.95 746.459 142.95C740.559 142.95 736.109 145.35 733.109 150.15C730.109 154.95 728.609 160.65 728.609 167.25C728.609 173.95 730.109 179.7 733.109 184.5C736.109 189.3 740.559 191.7 746.459 191.7ZM824.177 208.2C817.477 208.2 811.677 206.95 806.777 204.45C801.977 201.95 798.327 198.7 795.827 194.7C793.327 190.6 792.077 186.3 792.077 181.8V180.9H812.327V181.8C812.327 184.5 813.377 186.9 815.477 189C817.577 191.1 820.627 192.15 824.627 192.15C827.927 192.15 830.577 191.4 832.577 189.9C834.677 188.3 835.727 186.15 835.727 183.45C835.727 181.05 834.827 179.15 833.027 177.75C831.227 176.35 828.977 175.45 826.277 175.05L817.277 173.25C811.377 172.15 806.027 169.8 801.227 166.2C796.427 162.6 794.027 157.15 794.027 149.85C794.027 142.35 796.777 136.5 802.277 132.3C807.777 128 814.827 125.85 823.427 125.85C829.727 125.85 835.177 127 839.777 129.3C844.377 131.6 847.877 134.65 850.277 138.45C852.677 142.15 853.877 146.15 853.877 150.45V151.05H833.627V150.6C833.627 148.2 832.727 146 830.927 144C829.127 141.9 826.377 140.85 822.677 140.85C819.577 140.85 817.077 141.65 815.177 143.25C813.277 144.85 812.327 146.95 812.327 149.55C812.327 151.95 813.277 153.85 815.177 155.25C817.177 156.65 819.627 157.6 822.527 158.1L832.427 160.05C838.827 161.45 844.227 164 848.627 167.7C853.027 171.3 855.227 176.45 855.227 183.15C855.227 188.15 853.877 192.55 851.177 196.35C848.477 200.15 844.727 203.1 839.927 205.2C835.227 207.2 829.977 208.2 824.177 208.2ZM864.548 106.2V97.2H885.848V106.2L882.548 172.35H867.548L864.548 106.2ZM875.198 208.5C871.998 208.5 869.348 207.4 867.248 205.2C865.148 203 864.098 200.35 864.098 197.25C864.098 194.15 865.148 191.5 867.248 189.3C869.348 187.1 871.998 186 875.198 186C878.398 186 881.048 187.1 883.148 189.3C885.348 191.5 886.448 194.15 886.448 197.25C886.448 200.35 885.348 203 883.148 205.2C881.048 207.4 878.398 208.5 875.198 208.5ZM411.794 317.77C406.294 317.77 401.527 316.707 397.494 314.58C393.534 312.38 390.417 309.52 388.144 306C385.871 302.48 384.477 298.667 383.964 294.56H399.364C400.097 297.787 401.564 300.207 403.764 301.82C406.037 303.433 408.641 304.24 411.574 304.24C415.534 304.24 418.614 302.957 420.814 300.39C423.014 297.75 424.114 294.377 424.114 290.27C424.114 286.09 422.977 282.717 420.704 280.15C418.504 277.583 415.387 276.3 411.354 276.3C405.927 276.3 402.114 278.793 399.914 283.78L384.844 283.56L386.934 240H434.674V253.86H399.364L398.374 272.78H399.034C400.061 271.167 401.857 269.553 404.424 267.94C406.991 266.327 410.621 265.52 415.314 265.52C422.721 265.52 428.551 267.757 432.804 272.23C437.131 276.703 439.294 282.717 439.294 290.27C439.294 295.183 438.231 299.73 436.104 303.91C434.051 308.09 430.971 311.463 426.864 314.03C422.757 316.523 417.734 317.77 411.794 317.77ZM473.686 318.54C463.713 318.54 456.269 315.277 451.356 308.75C446.516 302.223 444.096 293.607 444.096 282.9V273.88C444.096 263.173 446.516 254.593 451.356 248.14C456.269 241.687 463.713 238.46 473.686 238.46C483.733 238.46 491.176 241.723 496.016 248.25C500.929 254.703 503.386 263.247 503.386 273.88V282.9C503.386 293.607 500.929 302.223 496.016 308.75C491.103 315.277 483.659 318.54 473.686 318.54ZM473.686 305.34C478.086 305.34 481.276 303.507 483.256 299.84C485.309 296.1 486.336 290.637 486.336 283.45V273.22C486.336 266.107 485.309 260.753 483.256 257.16C481.276 253.493 478.086 251.66 473.686 251.66C469.359 251.66 466.169 253.493 464.116 257.16C462.136 260.753 461.146 266.107 461.146 273.22V283.45C461.146 290.637 462.136 296.1 464.116 299.84C466.169 303.507 469.359 305.34 473.686 305.34ZM537.821 318.54C527.848 318.54 520.405 315.277 515.491 308.75C510.651 302.223 508.231 293.607 508.231 282.9V273.88C508.231 263.173 510.651 254.593 515.491 248.14C520.405 241.687 527.848 238.46 537.821 238.46C547.868 238.46 555.311 241.723 560.151 248.25C565.065 254.703 567.521 263.247 567.521 273.88V282.9C567.521 293.607 565.065 302.223 560.151 308.75C555.238 315.277 547.795 318.54 537.821 318.54ZM537.821 305.34C542.221 305.34 545.411 303.507 547.391 299.84C549.445 296.1 550.471 290.637 550.471 283.45V273.22C550.471 266.107 549.445 260.753 547.391 257.16C545.411 253.493 542.221 251.66 537.821 251.66C533.495 251.66 530.305 253.493 528.251 257.16C526.271 260.753 525.281 266.107 525.281 273.22V283.45C525.281 290.637 526.271 296.1 528.251 299.84C530.305 303.507 533.495 305.34 537.821 305.34ZM580.512 276.63H620.222V288.73H580.512V276.63ZM656.548 240H671.948V317H656.548V240ZM681.671 258.92H697.071V267.83H697.841C699.161 264.97 701.288 262.55 704.221 260.57C707.155 258.517 710.711 257.49 714.891 257.49C722.445 257.49 727.761 259.91 730.841 264.75C733.995 269.59 735.571 275.09 735.571 281.25V317H720.391V283.78C720.391 279.527 719.365 276.19 717.311 273.77C715.331 271.35 712.508 270.14 708.841 270.14C704.955 270.14 702.021 271.423 700.041 273.99C698.061 276.483 697.071 279.747 697.071 283.78V317H681.671V258.92ZM764.041 270.8V296.65C764.041 299.217 764.151 301.123 764.371 302.37C764.665 303.617 765.398 304.607 766.571 305.34C767.745 306.073 769.651 306.44 772.291 306.44C773.831 306.44 775.408 306.293 777.021 306V316.56C776.215 316.707 774.748 316.89 772.621 317.11C770.568 317.33 768.551 317.44 766.571 317.44C761.218 317.44 757.221 316.67 754.581 315.13C752.015 313.517 750.401 311.537 749.741 309.19C749.081 306.77 748.751 303.69 748.751 299.95V270.8H739.071V258.92H748.861V240H764.041V258.92H777.021V270.8H764.041ZM810.12 317.88C804.034 317.88 798.9 316.487 794.72 313.7C790.54 310.84 787.424 307.137 785.37 302.59C783.39 297.97 782.4 293.02 782.4 287.74C782.4 282.46 783.39 277.547 785.37 273C787.424 268.38 790.54 264.64 794.72 261.78C798.9 258.92 804.07 257.49 810.23 257.49C818.37 257.49 824.824 260.093 829.59 265.3C834.43 270.507 836.85 278.023 836.85 287.85V292.03H797.03V292.91C797.03 296.43 798.24 299.473 800.66 302.04C803.08 304.533 806.124 305.78 809.79 305.78C812.65 305.78 815.07 305.12 817.05 303.8C819.03 302.48 820.46 300.683 821.34 298.41H836.3C834.76 304.13 831.754 308.823 827.28 312.49C822.807 316.083 817.087 317.88 810.12 317.88ZM822.22 282.13C822.074 277.51 820.9 274.1 818.7 271.9C816.5 269.7 813.604 268.6 810.01 268.6C806.197 268.6 803.19 269.81 800.99 272.23C798.79 274.65 797.617 277.95 797.47 282.13H822.22ZM843.579 258.92H858.649V268.16H859.419C860.372 265.593 862.132 263.43 864.699 261.67C867.266 259.837 870.566 258.92 874.599 258.92C876.139 258.92 877.459 259.067 878.559 259.36L877.899 273.33C876.066 272.817 874.122 272.56 872.069 272.56C867.522 272.56 864.149 273.77 861.949 276.19C859.749 278.537 858.649 282.46 858.649 287.96V317H843.579V258.92ZM883.104 258.92H898.504V267.83H899.274C900.594 264.97 902.721 262.55 905.654 260.57C908.588 258.517 912.144 257.49 916.324 257.49C923.878 257.49 929.194 259.91 932.274 264.75C935.428 269.59 937.004 275.09 937.004 281.25V317H921.824V283.78C921.824 279.527 920.798 276.19 918.744 273.77C916.764 271.35 913.941 270.14 910.274 270.14C906.388 270.14 903.454 271.423 901.474 273.99C899.494 276.483 898.504 279.747 898.504 283.78V317H883.104V258.92ZM965.554 317.88C958.367 317.88 952.757 315.13 948.724 309.63C944.69 304.13 942.674 296.87 942.674 287.85C942.674 278.683 944.69 271.35 948.724 265.85C952.83 260.277 958.55 257.49 965.884 257.49C970.797 257.49 974.647 258.627 977.434 260.9C980.22 263.1 982.2 265.447 983.374 267.94H984.254V258.92H999.544V317H984.254V306.99H983.374C982.054 309.703 980 312.197 977.214 314.47C974.427 316.743 970.54 317.88 965.554 317.88ZM971.164 305.56C975.49 305.56 978.754 303.8 980.954 300.28C983.154 296.76 984.254 292.543 984.254 287.63C984.254 282.717 983.154 278.537 980.954 275.09C978.827 271.643 975.564 269.92 971.164 269.92C966.764 269.92 963.5 271.643 961.374 275.09C959.247 278.537 958.184 282.717 958.184 287.63C958.184 292.617 959.247 296.87 961.374 300.39C963.5 303.837 966.764 305.56 971.164 305.56ZM1027.06 317.44C1021.64 317.44 1017.6 316.633 1014.96 315.02C1012.4 313.333 1010.78 311.28 1010.12 308.86C1009.54 306.367 1009.24 303.213 1009.24 299.4V234.5H1024.42V296.32C1024.42 298.96 1024.53 300.94 1024.75 302.26C1025.05 303.507 1025.78 304.533 1026.95 305.34C1028.2 306.073 1030.14 306.44 1032.78 306.44C1033.66 306.44 1034.69 306.367 1035.86 306.22V316.78C1032.12 317.22 1029.19 317.44 1027.06 317.44ZM466.438 427.99C460.278 427.99 454.961 426.78 450.488 424.36C446.088 421.867 442.751 418.677 440.478 414.79C438.204 410.903 437.068 406.797 437.068 402.47V401.81H453.788V402.47C453.788 404.303 454.228 406.173 455.108 408.08C456.061 409.913 457.491 411.453 459.398 412.7C461.378 413.947 463.798 414.57 466.658 414.57C470.251 414.57 473.148 413.653 475.348 411.82C477.621 409.987 478.758 407.53 478.758 404.45C478.758 401.81 477.804 399.72 475.898 398.18C474.064 396.567 471.791 395.503 469.078 394.99L459.728 393.01C454.888 392.057 450.231 390.003 445.758 386.85C441.284 383.623 439.048 378.38 439.048 371.12C439.048 366.427 440.184 362.393 442.458 359.02C444.731 355.573 447.884 352.97 451.918 351.21C455.951 349.377 460.534 348.46 465.668 348.46C471.534 348.46 476.558 349.597 480.738 351.87C484.991 354.143 488.181 357.077 490.308 360.67C492.508 364.263 493.608 368.077 493.608 372.11V372.55H476.888V372.22C476.888 369.58 475.934 367.123 474.028 364.85C472.194 362.503 469.224 361.33 465.118 361.33C461.744 361.33 459.104 362.247 457.198 364.08C455.291 365.84 454.338 368.113 454.338 370.9C454.338 373.54 455.291 375.63 457.198 377.17C459.178 378.71 461.598 379.773 464.458 380.36L473.698 382.34C479.344 383.587 484.258 385.897 488.438 389.27C492.618 392.643 494.708 397.593 494.708 404.12C494.708 408.813 493.498 412.993 491.078 416.66C488.658 420.253 485.284 423.04 480.958 425.02C476.704 427 471.864 427.99 466.438 427.99ZM526.554 427.88C520.468 427.88 515.334 426.487 511.154 423.7C506.974 420.84 503.858 417.137 501.804 412.59C499.824 407.97 498.834 403.02 498.834 397.74C498.834 392.46 499.824 387.547 501.804 383C503.858 378.38 506.974 374.64 511.154 371.78C515.334 368.92 520.504 367.49 526.664 367.49C534.804 367.49 541.258 370.093 546.024 375.3C550.864 380.507 553.284 388.023 553.284 397.85V402.03H513.464V402.91C513.464 406.43 514.674 409.473 517.094 412.04C519.514 414.533 522.558 415.78 526.224 415.78C529.084 415.78 531.504 415.12 533.484 413.8C535.464 412.48 536.894 410.683 537.774 408.41H552.734C551.194 414.13 548.188 418.823 543.714 422.49C539.241 426.083 533.521 427.88 526.554 427.88ZM538.654 392.13C538.508 387.51 537.334 384.1 535.134 381.9C532.934 379.7 530.038 378.6 526.444 378.6C522.631 378.6 519.624 379.81 517.424 382.23C515.224 384.65 514.051 387.95 513.904 392.13H538.654ZM560.013 368.92H575.083V378.16H575.853C576.807 375.593 578.567 373.43 581.133 371.67C583.7 369.837 587 368.92 591.033 368.92C592.573 368.92 593.893 369.067 594.993 369.36L594.333 383.33C592.5 382.817 590.557 382.56 588.503 382.56C583.957 382.56 580.583 383.77 578.383 386.19C576.183 388.537 575.083 392.46 575.083 397.96V427H560.013V368.92ZM598.689 368.92H613.099L626.959 411.6H627.619L641.259 368.92H655.669L636.309 427H617.939L598.689 368.92ZM684.155 427.88C678.069 427.88 672.935 426.487 668.755 423.7C664.575 420.84 661.459 417.137 659.405 412.59C657.425 407.97 656.435 403.02 656.435 397.74C656.435 392.46 657.425 387.547 659.405 383C661.459 378.38 664.575 374.64 668.755 371.78C672.935 368.92 678.105 367.49 684.265 367.49C692.405 367.49 698.859 370.093 703.625 375.3C708.465 380.507 710.885 388.023 710.885 397.85V402.03H671.065V402.91C671.065 406.43 672.275 409.473 674.695 412.04C677.115 414.533 680.159 415.78 683.825 415.78C686.685 415.78 689.105 415.12 691.085 413.8C693.065 412.48 694.495 410.683 695.375 408.41H710.335C708.795 414.13 705.789 418.823 701.315 422.49C696.842 426.083 691.122 427.88 684.155 427.88ZM696.255 392.13C696.109 387.51 694.935 384.1 692.735 381.9C690.535 379.7 687.639 378.6 684.045 378.6C680.232 378.6 677.225 379.81 675.025 382.23C672.825 384.65 671.652 387.95 671.505 392.13H696.255ZM717.614 368.92H732.684V378.16H733.454C734.407 375.593 736.167 373.43 738.734 371.67C741.301 369.837 744.601 368.92 748.634 368.92C750.174 368.92 751.494 369.067 752.594 369.36L751.934 383.33C750.101 382.817 748.157 382.56 746.104 382.56C741.557 382.56 738.184 383.77 735.984 386.19C733.784 388.537 732.684 392.46 732.684 397.96V427H717.614V368.92ZM791.665 363.31V381.9H821.915V393.89H791.665V413.69H827.305V427H776.375V350H827.305V363.31H791.665ZM834.717 368.92H849.787V378.16H850.557C851.51 375.593 853.27 373.43 855.837 371.67C858.404 369.837 861.704 368.92 865.737 368.92C867.277 368.92 868.597 369.067 869.697 369.36L869.037 383.33C867.204 382.817 865.26 382.56 863.207 382.56C858.66 382.56 855.287 383.77 853.087 386.19C850.887 388.537 849.787 392.46 849.787 397.96V427H834.717V368.92ZM872.856 368.92H887.926V378.16H888.696C889.649 375.593 891.409 373.43 893.976 371.67C896.543 369.837 899.843 368.92 903.876 368.92C905.416 368.92 906.736 369.067 907.836 369.36L907.176 383.33C905.343 382.817 903.399 382.56 901.346 382.56C896.799 382.56 893.426 383.77 891.226 386.19C889.026 388.537 887.926 392.46 887.926 397.96V427H872.856V368.92ZM936.193 427.88C930.106 427.88 924.973 426.523 920.793 423.81C916.686 421.023 913.606 417.357 911.553 412.81C909.499 408.263 908.473 403.277 908.473 397.85C908.473 392.423 909.463 387.437 911.443 382.89C913.496 378.27 916.613 374.567 920.793 371.78C924.973 368.993 930.106 367.6 936.193 367.6C942.279 367.6 947.413 368.993 951.593 371.78C955.773 374.493 958.889 378.123 960.943 382.67C962.996 387.217 964.023 392.203 964.023 397.63C964.023 403.057 962.996 408.08 960.943 412.7C958.889 417.247 955.773 420.913 951.593 423.7C947.413 426.487 942.279 427.88 936.193 427.88ZM936.193 415.56C940.446 415.56 943.636 413.873 945.763 410.5C947.963 407.053 949.063 402.763 949.063 397.63C949.063 392.497 947.963 388.28 945.763 384.98C943.636 381.607 940.446 379.92 936.193 379.92C931.939 379.92 928.749 381.607 926.623 384.98C924.496 388.28 923.433 392.497 923.433 397.63C923.433 402.763 924.496 407.053 926.623 410.5C928.823 413.873 932.013 415.56 936.193 415.56ZM970.833 368.92H985.903V378.16H986.673C987.627 375.593 989.387 373.43 991.953 371.67C994.52 369.837 997.82 368.92 1001.85 368.92C1003.39 368.92 1004.71 369.067 1005.81 369.36L1005.15 383.33C1003.32 382.817 1001.38 382.56 999.323 382.56C994.777 382.56 991.403 383.77 989.203 386.19C987.003 388.537 985.903 392.46 985.903 397.96V427H970.833V368.92Z" fill="url(#paint1_linear_328_723)"/>
</g>
<defs>
<filter id="filter0_b_328_723" x="-334" y="-300" width="2073" height="1204" filterUnits="userSpaceOnUse" color-interpolation-filters="sRGB">
<feFlood flood-opacity="0" result="BackgroundImageFix"/>
<feGaussianBlur in="BackgroundImageFix" stdDeviation="150"/>
<feComposite in2="SourceAlpha" operator="in" result="effect1_backgroundBlur_328_723"/>
<feBlend mode="normal" in="SourceGraphic" in2="effect1_backgroundBlur_328_723" result="shape"/>
</filter>
<linearGradient id="paint0_linear_328_723" x1="702.5" y1="0" x2="702.5" y2="604" gradientUnits="userSpaceOnUse">
<stop offset="0.5625" stop-color="#00173F"/>
<stop offset="1" stop-color="#00173F" stop-opacity="0"/>
</linearGradient>
<linearGradient id="paint1_linear_328_723" x1="511.037" y1="279.392" x2="966.734" y2="377.872" gradientUnits="userSpaceOnUse">
<stop stop-color="#32CD9F" stop-opacity="0.69"/>
<stop offset="0.338542" stop-color="#32CD9F"/>
<stop offset="1" stop-color="#0DDDFF" stop-opacity="0"/>
</linearGradient>
<clipPath id="clip0_328_723">
<rect width="604" height="1439" fill="white" transform="translate(0 604) rotate(-90)"/>
</clipPath>
</defs>
</svg>
